<svg xmlns="http://www.w3.org/2000/svg" xmlns:xlink="http://www.w3.org/1999/xlink" id="b" viewBox="0 0 454.93 494.26" width="454.93" height="494.26"><metadata><rdf:RDF xmlns:rdf="http://www.w3.org/1999/02/22-rdf-syntax-ns#" xmlns:dc="http://purl.org/dc/elements/1.1/"><rdf:Description><dc:creator>RealFaviconGenerator</dc:creator><dc:source>https://realfavicongenerator.net</dc:source></rdf:Description></rdf:RDF></metadata><defs><style>.w{fill:#153f3b;}.x{fill:url(#c);}.y{fill:url(#d);}.z{fill:url(#h);}.aa{fill:url(#j);}.ab{fill:url(#g);}.ac{fill:url(#e);}.ad{fill:url(#i);}.ae{fill:url(#f);}</style><linearGradient id="c" x1="-588.73" y1="355.18" x2="-206.74" y2="737.17" gradientTransform="translate(564 730.26) scale(1 -1)" gradientUnits="userSpaceOnUse"><stop offset=".1" stop-color="#00a594"></stop><stop offset=".45" stop-color="#2f7d73"></stop><stop offset=".93" stop-color="#8fbdb1"></stop></linearGradient><linearGradient id="d" x1="-374.32" y1="683.48" x2="-96.85" y2="406.01" gradientTransform="translate(564 730.26) scale(1 -1)" gradientUnits="userSpaceOnUse"><stop offset=".15" stop-color="#e8c58f"></stop><stop offset=".55" stop-color="#d7af72"></stop><stop offset=".95" stop-color="#b88d55"></stop></linearGradient><linearGradient id="e" x1="-458.1" y1="676.5" x2="-136.52" y2="354.92" gradientTransform="translate(564 730.26) scale(1 -1)" gradientUnits="userSpaceOnUse"><stop offset=".02" stop-color="#f4dfc0" stop-opacity="0"></stop><stop offset=".43" stop-color="#f1d3a0" stop-opacity=".85"></stop><stop offset=".9" stop-color="#c59a61" stop-opacity="0"></stop></linearGradient><linearGradient id="f" x1="-493.26" y1="664.12" x2="-300.05" y2="470.04" gradientTransform="translate(564 730.26) scale(1 -1)" gradientUnits="userSpaceOnUse"><stop offset=".03" stop-color="#0e6f66"></stop><stop offset=".45" stop-color="#167f75" stop-opacity=".65"></stop><stop offset=".93" stop-color="#5fa99a" stop-opacity="0"></stop></linearGradient><linearGradient id="g" x1="-438.21" y1="220.24" x2="-164.77" y2="493.68" gradientTransform="translate(564 730.26) scale(1 -1)" gradientUnits="userSpaceOnUse"><stop offset=".11" stop-color="#8fbdb1"></stop><stop offset=".55" stop-color="#bfd5cb"></stop><stop offset="1" stop-color="#c7d3ce"></stop></linearGradient><linearGradient id="h" x1="-289.17" y1="469.39" x2="-488.71" y2="269.85" gradientTransform="translate(564 730.26) scale(1 -1)" gradientUnits="userSpaceOnUse"><stop offset=".28" stop-color="#00a594"></stop><stop offset=".52" stop-color="#2f7d73" stop-opacity=".55"></stop><stop offset=".83" stop-color="#8fbdb1" stop-opacity="0"></stop></linearGradient><linearGradient id="i" x1="-297.55" y1="501.67" x2="-144.06" y2="348.17" gradientTransform="translate(564 730.26) scale(1 -1)" gradientUnits="userSpaceOnUse"><stop offset=".04" stop-color="#4f8f84"></stop><stop offset=".55" stop-color="#7fafa4" stop-opacity=".42"></stop><stop offset="1" stop-color="#bfd5cb" stop-opacity="0"></stop></linearGradient><linearGradient id="j" x1="-451.32" y1="296.67" x2="-259.58" y2="488.41" gradientTransform="translate(564 730.26) scale(1 -1)" gradientUnits="userSpaceOnUse"><stop offset=".05" stop-color="#bfd8d0" stop-opacity="0"></stop><stop offset=".3" stop-color="#a9cdc3"></stop><stop offset=".65" stop-color="#ddebe6"></stop><stop offset="1" stop-color="#ddebe6" stop-opacity="0"></stop></linearGradient></defs><path class="w" d="M404.93,86.96L277.49,13.38c-31-17.85-69.04-17.85-100.04,0L50.01,86.96C19.09,104.81.06,137.84.06,173.54v147.17c0,35.7,19.02,68.73,49.94,86.58l127.44,73.58c31,17.85,69.04,17.85,100.04,0l127.44-73.58c1.02-.63,2.04-1.25,2.97-1.88,29.2-18.16,46.97-50.18,46.97-84.7v-147.17c0-35.7-19.02-68.73-49.94-86.58h0ZM292.52,218.23c15.97,15.97,15.97,41.8,0,57.77l-36.17,36.17c-15.97,15.97-41.8,15.97-57.77,0l-36.17-36.17c-15.97-15.97-15.97-41.8,0-57.77l36.17-36.17c15.97-15.97,41.8-15.97,57.77,0l36.17,36.17h0Z"></path><path class="x" d="M178.07,103.79l78.28,78.28c-15.97-15.97-41.8-15.97-57.77,0l-36.17,36.17c-15.97,15.97-15.97,41.8,0,57.77l36.17,36.17c15.97,15.97,41.8,15.97,57.77,0l-78.28,78.28c-33.9,33.97-86.42,40.86-128.07,16.83C19.09,389.43.06,356.4.06,320.7v-147.17C.06,137.84,19.09,104.81,50.01,86.96c41.64-24.03,94.17-17.14,128.07,16.83h0Z"></path><path class="y" d="M454.87,173.54v147.17c0,34.52-17.77,66.54-46.97,84.7,21.92-15.11,25.21-46.89,5.95-66.07l-157.5-157.26-78.28-78.28c-33.9-33.97-86.42-40.86-128.07-16.83L177.45,13.38c31-17.85,69.04-17.85,100.04,0l127.44,73.58c30.92,17.85,49.94,50.88,49.94,86.58Z"></path><path class="ac" d="M431.89,374.21c1.3-14.45-3.84-28.61-14.1-38.82l-157.5-157.26-78.27-78.28c-21.04-21.09-49.07-32.71-78.92-32.71-2.72,0-5.44.1-8.14.3v5.62c2.71-.21,5.43-.35,8.14-.35,27.45,0,54.58,10.64,74.97,31.07l78.28,78.28,157.5,157.26c10.1,10.06,13.94,23.57,12.2,36.34h5.68c.06-.49.11-.97.15-1.46h0Z"></path><path class="ae" d="M256.35,182.07l-78.28-78.28c-29.52-29.58-73.16-38.62-111.44-24.59-.38.15-.78.3-1.16.45h-.02c-5.27,2-10.44,4.43-15.45,7.32-4.79,2.77-9.26,5.94-13.45,9.38-1.09.89-2.17,1.78-3.22,2.72,40.68-17.83,88.63-9.32,120.52,22.64l53.64,53.64c15.56-8.75,35.6-6.53,48.85,6.72h.01Z"></path><path class="ab" d="M413.85,339.33c19.26,19.18,15.97,50.96-5.95,66.07-.94.63-1.96,1.25-2.97,1.88l-127.44,73.58c-31,17.85-69.04,17.85-100.04,0l-127.44-73.58c41.64,24.03,94.17,17.14,128.07-16.83l78.28-78.28,36.17-36.17c15.97-15.97,15.97-41.8,0-57.77l121.33,121.1h0Z"></path><path class="z" d="M256.35,312.17c-12.74,12.74-31.68,15.14-46.96,7.55l-70.73,70.73c-15.51,15.54-34.93,25.35-55.42,29.18,33.8,6.44,69.51-3.81,94.82-29.18l78.28-78.28h.01Z"></path><path class="ad" d="M292.52,218.23c13.22,13.22,15.32,33.14,6.65,48.69l96.48,96.34c11.79,11.75,15.28,28.08,11.44,42.65.27-.17.56-.34.81-.51,21.92-15.11,25.21-46.89,5.95-66.07l-121.33-121.1h0Z"></path><path class="aa" d="M309.89,243.45h-5.57c1.04,11.64-2.88,23.63-11.8,32.55l-36.17,36.17-78.28,78.28c-20.39,20.44-47.52,31.07-74.97,31.07-2.71,0-5.43-.14-8.14-.35v5.62c2.71.2,5.42.3,8.14.3,29.85,0,57.87-11.62,78.91-32.71l78.28-78.28,36.17-36.17c9.98-9.98,14.46-23.42,13.43-36.5v.02Z"></path></svg>