<?xml version="1.0" encoding="UTF-8"?><svg id="d" xmlns="http://www.w3.org/2000/svg" xmlns:xlink="http://www.w3.org/1999/xlink" viewBox="0 0 1457.19 494.26"><defs><style>.ab{fill:url(#k);}.ac{fill:#153f3b;}.ad{fill:url(#l);}.ae{fill:url(#h);}.af{fill:url(#j);}.ag{fill:url(#g);}.ah{fill:url(#e);}.ai{fill:url(#i);}.aj{fill:url(#f);}.ak{fill:#f4efe7;}</style><linearGradient id="e" x1="-582.59" y1="-3732.77" x2="-250.03" y2="-3400.22" gradientTransform="translate(564 -3377.2258) scale(1 -1)" gradientUnits="userSpaceOnUse"><stop offset=".1" stop-color="#00a594"/><stop offset=".45" stop-color="#2f7d73"/><stop offset=".93" stop-color="#8fbdb1"/></linearGradient><linearGradient id="f" x1="-395.93" y1="-3446.97" x2="-154.36" y2="-3688.54" gradientTransform="translate(564 -3377.2258) scale(1 -1)" gradientUnits="userSpaceOnUse"><stop offset=".15" stop-color="#e8c58f"/><stop offset=".55" stop-color="#d7af72"/><stop offset=".95" stop-color="#b88d55"/></linearGradient><linearGradient id="g" x1="-468.85" y1="-3453.04" x2="-188.88" y2="-3733.01" gradientTransform="translate(564 -3377.2258) scale(1 -1)" gradientUnits="userSpaceOnUse"><stop offset=".02" stop-color="#f4dfc0" stop-opacity="0"/><stop offset=".43" stop-color="#f1d3a0" stop-opacity=".85"/><stop offset=".9" stop-color="#c59a61" stop-opacity="0"/></linearGradient><linearGradient id="h" x1="-499.49" y1="-3463.83" x2="-331.26" y2="-3632.81" gradientTransform="translate(564 -3377.2258) scale(1 -1)" gradientUnits="userSpaceOnUse"><stop offset=".03" stop-color="#0e6f66"/><stop offset=".45" stop-color="#167f75" stop-opacity=".65"/><stop offset=".93" stop-color="#5fa99a" stop-opacity="0"/></linearGradient><linearGradient id="i" x1="-451.56" y1="-3850.23" x2="-213.46" y2="-3612.14" gradientTransform="translate(564 -3377.2258) scale(1 -1)" gradientUnits="userSpaceOnUse"><stop offset=".11" stop-color="#8fbdb1"/><stop offset=".55" stop-color="#bfd5cb"/><stop offset="1" stop-color="#c7d3ce"/></linearGradient><linearGradient id="j" x1="-321.79" y1="-3633.31" x2="-495.52" y2="-3807.04" gradientTransform="translate(564 -3377.2258) scale(1 -1)" gradientUnits="userSpaceOnUse"><stop offset=".28" stop-color="#00a594"/><stop offset=".52" stop-color="#2f7d73" stop-opacity=".55"/><stop offset=".83" stop-color="#8fbdb1" stop-opacity="0"/></linearGradient><linearGradient id="k" x1="-329.04" y1="-3605.22" x2="-195.42" y2="-3738.85" gradientTransform="translate(564 -3377.2258) scale(1 -1)" gradientUnits="userSpaceOnUse"><stop offset=".04" stop-color="#4f8f84"/><stop offset=".55" stop-color="#7fafa4" stop-opacity=".42"/><stop offset="1" stop-color="#bfd5cb" stop-opacity="0"/></linearGradient><linearGradient id="l" x1="-462.96" y1="-3783.69" x2="-296.03" y2="-3616.76" gradientTransform="translate(564 -3377.2258) scale(1 -1)" gradientUnits="userSpaceOnUse"><stop offset=".05" stop-color="#bfd8d0" stop-opacity="0"/><stop offset=".3" stop-color="#a9cdc3"/><stop offset=".65" stop-color="#ddebe6"/><stop offset="1" stop-color="#ddebe6" stop-opacity="0"/></linearGradient></defs><path class="ac" d="M355.52,104.75l-110.98-64.04c-27-15.54-60.12-15.54-87.12,0L46.45,104.75C19.53,120.29,2.96,149.04,2.96,180.11v128.09c0,31.07,16.56,59.82,43.49,75.36l110.98,64.04c27,15.54,60.12,15.54,87.12,0l110.98-64.04c.89-.55,1.78-1.09,2.59-1.64,25.43-15.81,40.9-43.68,40.9-73.72v-128.09c0-31.07-16.56-59.82-43.49-75.36h0ZM257.63,219.01c13.91,13.9,13.91,36.38,0,50.28l-31.5,31.48c-13.91,13.9-36.4,13.9-50.31,0l-31.5-31.48c-13.91-13.9-13.91-36.38,0-50.28l31.5-31.48c13.91-13.9,36.4-13.9,50.31,0l31.5,31.48h0Z"/><path class="ah" d="M157.97,119.4l68.17,68.13c-13.91-13.9-36.4-13.9-50.31,0l-31.5,31.48c-13.91,13.9-13.91,36.38,0,50.28l31.5,31.48c13.91,13.9,36.4,13.9,50.31,0l-68.17,68.13c-29.52,29.57-75.26,35.56-111.52,14.65-26.92-15.54-43.49-44.29-43.49-75.37v-128.09c0-31.06,16.57-59.81,43.5-75.35,36.26-20.92,82-14.92,111.52,14.65h0Z"/><path class="aj" d="M399.01,180.11v128.09c0,30.05-15.47,57.91-40.9,73.72,19.09-13.15,21.95-40.81,5.18-57.51l-137.15-136.88-68.17-68.13c-29.52-29.57-75.26-35.56-111.52-14.65l110.98-64.05c27-15.54,60.12-15.54,87.12,0l110.98,64.04c26.93,15.54,43.49,44.28,43.49,75.36Z"/><path class="ag" d="M379,354.77c1.13-12.58-3.34-24.9-12.28-33.79l-137.15-136.88-68.16-68.13c-18.32-18.36-42.73-28.47-68.72-28.47-2.37,0-4.74.09-7.09.26v4.89c2.36-.18,4.73-.3,7.09-.3,23.9,0,47.53,9.26,65.28,27.04l68.17,68.13,137.15,136.88c8.8,8.76,12.14,20.51,10.62,31.63h4.95c.05-.43.1-.84.13-1.27h0Z"/><path class="ae" d="M226.14,187.53l-68.17-68.13c-25.71-25.75-63.71-33.61-97.04-21.4-.33.13-.68.26-1.01.39h-.02c-4.59,1.74-9.09,3.86-13.45,6.37-4.17,2.41-8.06,5.17-11.71,8.16-.95.77-1.89,1.55-2.8,2.37,35.42-15.52,77.18-8.11,104.95,19.71l46.71,46.69c13.55-7.62,31-5.68,42.54,5.85h0Z"/><path class="ai" d="M363.29,324.41c16.77,16.69,13.91,44.35-5.18,57.51-.82.55-1.71,1.09-2.59,1.64l-110.98,64.04c-27,15.54-60.12,15.54-87.12,0l-110.98-64.04c36.26,20.92,82,14.92,111.52-14.65l68.17-68.13,31.5-31.48c13.91-13.9,13.91-36.38,0-50.28l105.66,105.4h0Z"/><path class="af" d="M226.14,300.77c-11.09,11.09-27.59,13.18-40.89,6.57l-61.59,61.56c-13.51,13.53-30.42,22.06-48.26,25.4,29.43,5.61,60.53-3.32,82.57-25.4l68.17-68.13h0Z"/><path class="ab" d="M257.63,219.01c11.51,11.51,13.34,28.84,5.79,42.38l84.02,83.85c10.27,10.23,13.31,24.44,9.96,37.12.24-.15.49-.3.71-.44,19.09-13.15,21.95-40.81,5.18-57.51l-105.66-105.4h0Z"/><path class="ad" d="M272.76,240.96h-4.85c.91,10.13-2.51,20.57-10.28,28.33l-31.5,31.48-68.17,68.13c-17.76,17.79-41.38,27.04-65.28,27.04-2.36,0-4.73-.12-7.09-.3v4.89c2.36.17,4.72.26,7.09.26,25.99,0,50.39-10.11,68.72-28.47l68.17-68.13,31.5-31.48c8.69-8.69,12.59-20.38,11.69-31.77v.02Z"/><path class="ak" d="M532.9,165.32c3.16,4.88,7.1,9.11,11.81,12.7,4.7,3.59,11.08,7.87,19.12,12.83,8.73,5.48,15.61,10.18,20.66,14.11,5.04,3.94,9.32,8.77,12.83,14.5,3.5,5.73,5.26,12.45,5.26,20.15,0,8.73-2.27,16.51-6.8,23.35-4.54,6.84-10.95,12.19-19.25,16.04-8.3,3.85-17.75,5.77-28.36,5.77-7.19,0-14.59-.94-22.2-2.82-7.61-1.88-13.39-4.19-17.32-6.93-1.54-1.03-2.4-2.65-2.57-4.88l-1.54-39.01v-.26c0-.68.42-1.07,1.28-1.15.85-.08,1.37.22,1.54.9,5.65,14.2,12.1,25.83,19.38,34.9,7.27,9.07,16.55,13.6,27.84,13.6,7.35,0,13.51-2.01,18.48-6.03,4.96-4.02,7.44-10.73,7.44-20.15,0-7.53-1.67-14.11-5-19.76-3.34-5.65-7.44-10.35-12.32-14.11-4.88-3.76-11.51-8.38-19.89-13.86-8.21-5.3-14.63-9.79-19.25-13.47-4.62-3.68-8.56-8.21-11.81-13.6-3.25-5.39-4.88-11.68-4.88-18.86,0-8.89,2.48-16.42,7.44-22.58,4.96-6.16,11.42-10.73,19.38-13.73,7.96-2.99,16.3-4.49,25.02-4.49,5.81,0,11.63.56,17.45,1.67,5.81,1.11,10.69,2.53,14.63,4.23,2.57,1.03,3.85,2.65,3.85,4.88l.77,34.9c0,.51-.47.86-1.41,1.03-.94.17-1.5,0-1.67-.51-3.42-10.43-8-19.89-13.73-28.36-5.73-8.47-14.33-12.7-25.79-12.7-7.7,0-13.82,2.22-18.35,6.67-4.54,4.45-6.8,10.52-6.8,18.22,0,6.33,1.58,11.93,4.75,16.81Z"/><path class="ak" d="M743.21,265.53c.51,0,.94.43,1.28,1.28.34.86.26,1.46-.26,1.8l-33.62,16.17-1.03.26c-1.71,0-3.25-1.92-4.62-5.77-1.37-3.85-2.14-9.02-2.31-15.53-11.98,13.86-24.64,20.79-37.98,20.79-9.24,0-16.42-2.86-21.56-8.6-5.13-5.73-7.7-13.56-7.7-23.48v-38.24c0-11.63-2.65-17.45-7.96-17.45-1.71,0-4.11.69-7.19,2.05h-.26c-.69,0-1.2-.42-1.54-1.28-.34-.85-.26-1.45.26-1.8l32.59-15.14,1.03-.26c.68,0,1.45.35,2.31,1.03.85.69,1.28,1.28,1.28,1.8v58.26c0,9.58,1.75,16.72,5.26,21.43,3.5,4.71,8.85,7.06,16.04,7.06,4.27,0,8.68-1.03,13.22-3.08,4.53-2.05,8.6-4.88,12.19-8.47v-44.14c0-5.99-.64-10.39-1.92-13.22-1.28-2.82-3.3-4.23-6.03-4.23-1.54,0-3.94.69-7.19,2.05h-.26c-.69,0-1.2-.47-1.54-1.41-.34-.94-.17-1.5.51-1.67l32.34-15.14c.34-.17.77-.26,1.28-.26.68,0,1.45.35,2.31,1.03.85.69,1.28,1.28,1.28,1.8v69.55c0,5.99.6,10.18,1.8,12.57,1.19,2.4,3.16,3.59,5.9,3.59,2.05,0,5.9-1.03,11.55-3.08l.51-.26Z"/><path class="ak" d="M846.76,184.69c6.42,3.59,11.55,8.98,15.4,16.17s5.77,15.91,5.77,26.18c0,12.32-2.61,22.84-7.83,31.57-5.22,8.73-12.11,15.31-20.66,19.76-8.56,4.45-17.62,6.67-27.2,6.67-13.34,0-25.32-3.93-35.93-11.8l-21.81,10.01h-.51c-.69,0-1.11-.3-1.28-.9-.17-.6,0-1.07.51-1.41,4.62-2.91,8-6.29,10.14-10.14,2.14-3.85,3.21-9.02,3.21-15.53v-125.49c0-5.99-.6-10.31-1.8-12.96-1.2-2.65-3.25-3.98-6.16-3.98-2.05,0-5.39,1.03-10.01,3.08h-.26c-.69,0-1.2-.42-1.54-1.28-.35-.85-.35-1.45,0-1.8l35.67-16.94,1.28-.26c.68,0,1.45.34,2.31,1.03.85.69,1.28,1.28,1.28,1.8v99.83c5.65-5.81,11.55-10.43,17.71-13.86,6.16-3.42,13.09-5.13,20.79-5.13s14.5,1.8,20.92,5.39ZM838.16,268.61c4.45-7.53,6.67-18.22,6.67-32.08,0-15.05-2.69-26.39-8.08-34-5.39-7.61-12.62-11.42-21.69-11.42s-17.96,3.94-27.72,11.8v39.26c0,8.9,1.67,16.17,5,21.81,3.34,5.65,7.44,9.71,12.32,12.19,4.88,2.48,9.62,3.72,14.24,3.72,8.38,0,14.8-3.76,19.25-11.29Z"/><path class="ak" d="M980.59,99.36c5.3,2.65,7.96,6.2,7.96,10.65,0,3.42-1.15,6.12-3.46,8.08-2.31,1.97-5,2.95-8.08,2.95-3.42,0-6.03-.77-7.83-2.31-1.8-1.54-3.46-3.93-5-7.19-2.05-3.59-4.15-6.29-6.29-8.08-2.14-1.8-5.18-2.69-9.11-2.69-8.56,0-15.31,5.56-20.27,16.68-4.96,11.12-7.44,28.32-7.44,51.58v15.91c8.89-.17,18.82-.94,29.77-2.31.51,0,.94.6,1.28,1.8.34,1.2.51,2.65.51,4.36,0,1.54-.26,3.08-.77,4.62s-1.11,2.23-1.8,2.05c-10.44-2.39-20.11-3.68-29-3.85v69.29c0,5.3.55,9.15,1.67,11.55,1.11,2.4,3.29,4.02,6.54,4.88,3.25.86,8.38,1.28,15.4,1.28.68,0,1.03.51,1.03,1.54s-.35,1.54-1.03,1.54l-17.19-.26c-3.77-.17-9.5-.26-17.19-.26l-15.14.26c-2.57.17-6.25.26-11.04.26-.69,0-1.03-.51-1.03-1.54s.34-1.54,1.03-1.54c4.62,0,8.04-.47,10.27-1.41,2.22-.94,3.76-2.61,4.62-5,.85-2.39,1.28-6.16,1.28-11.29v-57.74c0-5.65-1.11-9.24-3.34-10.78-2.23-1.54-6.84-2.31-13.86-2.31-.51,0-.77-.77-.77-2.31,0-1.37.26-2.05.77-2.05,6.33,0,10.65-.81,12.96-2.44,2.31-1.62,3.55-4.58,3.72-8.85.85-27.88,6.07-48.03,15.65-60.44,9.58-12.4,23.95-18.61,43.11-18.61,9.41,0,16.77,1.33,22.07,3.98Z"/><path class="ak" d="M988.03,277.72c-7.87-4.88-13.95-11.46-18.22-19.76-4.28-8.3-6.42-17.32-6.42-27.08,0-11.12,2.78-20.57,8.34-28.36,5.56-7.78,12.66-13.6,21.3-17.45,8.64-3.85,17.49-5.77,26.56-5.77,10.43,0,19.54,2.48,27.33,7.44,7.78,4.96,13.73,11.51,17.84,19.63,4.11,8.13,6.16,16.81,6.16,26.05,0,10.27-2.53,19.42-7.57,27.46-5.05,8.04-11.85,14.24-20.4,18.61-8.56,4.36-17.8,6.54-27.72,6.54s-19.34-2.44-27.2-7.31ZM1040.25,269.9c4.02-6.67,6.03-16.42,6.03-29.26,0-11.46-1.58-21.47-4.75-30.03-3.17-8.55-7.44-15.05-12.83-19.5-5.39-4.45-11.25-6.67-17.58-6.67-7.7,0-13.52,3.17-17.45,9.5-3.94,6.33-5.9,15.66-5.9,27.97,0,11.12,1.5,21.09,4.49,29.9,2.99,8.81,7.19,15.7,12.58,20.66,5.39,4.96,11.42,7.44,18.09,7.44,7.53,0,13.3-3.34,17.32-10.01Z"/><path class="ak" d="M1088.37,280.16c0-1.03.26-1.54.77-1.54,5.65,0,9.5-1.24,11.55-3.72,2.05-2.48,3.08-7.14,3.08-13.99v-131.14c0-5.99-.56-10.31-1.67-12.96-1.11-2.65-3.12-3.98-6.03-3.98-2.57,0-5.99,1.03-10.27,3.08h-.26c-.69,0-1.2-.42-1.54-1.28-.34-.85-.34-1.45,0-1.8l36.19-16.94,1.03-.26c.68,0,1.5.34,2.44,1.03.94.69,1.41,1.28,1.41,1.8v162.45c0,7.02.94,11.72,2.82,14.11,1.88,2.4,5.73,3.59,11.55,3.59.51,0,.77.51.77,1.54s-.26,1.54-.77,1.54c-4.11,0-7.44-.08-10.01-.26l-15.14-.26-14.88.26c-2.57.17-5.99.26-10.27.26-.51,0-.77-.51-.77-1.54Z"/><path class="ak" d="M1158.17,280.16c0-1.03.26-1.54.77-1.54,5.81,0,9.66-1.2,11.55-3.59,1.88-2.39,2.82-7.1,2.82-14.11v-46.71c0-5.81-.6-10.05-1.8-12.7-1.2-2.65-3.25-3.98-6.16-3.98-2.57,0-5.9,1.03-10.01,3.08h-.26c-.69,0-1.2-.42-1.54-1.28-.34-.85-.26-1.45.26-1.8l36.96-17.19.77-.26c.68,0,1.41.38,2.18,1.15.77.77,1.15,1.41,1.15,1.92v5.39c-.34,7.19-.51,15.65-.51,25.41v46.96c0,7.02.98,11.72,2.95,14.11,1.96,2.4,5.86,3.59,11.68,3.59.51,0,.77.51.77,1.54s-.26,1.54-.77,1.54c-4.28,0-7.7-.08-10.27-.26l-14.88-.26-14.88.26c-2.4.17-5.73.26-10.01.26-.51,0-.77-.51-.77-1.54ZM1172.16,149.54c-2.48-2.39-3.72-5.81-3.72-10.26s1.24-7.57,3.72-9.88c2.48-2.31,5.94-3.46,10.39-3.46s7.61,1.15,10.01,3.46c2.39,2.31,3.59,5.61,3.59,9.88s-1.15,7.87-3.46,10.26c-2.31,2.4-5.69,3.59-10.14,3.59s-7.92-1.2-10.39-3.59Z"/><path class="ak" d="M1249.02,277.72c-7.87-4.88-13.95-11.46-18.22-19.76-4.28-8.3-6.42-17.32-6.42-27.08,0-11.12,2.78-20.57,8.34-28.36,5.56-7.78,12.66-13.6,21.3-17.45,8.64-3.85,17.49-5.77,26.56-5.77,10.43,0,19.54,2.48,27.33,7.44,7.78,4.96,13.73,11.51,17.84,19.63,4.11,8.13,6.16,16.81,6.16,26.05,0,10.27-2.53,19.42-7.57,27.46-5.05,8.04-11.85,14.24-20.4,18.61-8.56,4.36-17.8,6.54-27.72,6.54s-19.34-2.44-27.2-7.31ZM1301.24,269.9c4.02-6.67,6.03-16.42,6.03-29.26,0-11.46-1.58-21.47-4.75-30.03-3.17-8.55-7.44-15.05-12.83-19.5-5.39-4.45-11.25-6.67-17.58-6.67-7.7,0-13.52,3.17-17.45,9.5-3.94,6.33-5.9,15.66-5.9,27.97,0,11.12,1.5,21.09,4.49,29.9,2.99,8.81,7.19,15.7,12.58,20.66,5.39,4.96,11.42,7.44,18.09,7.44,7.53,0,13.3-3.34,17.32-10.01Z"/><path class="ak" d="M511.5,397.85v-59.31h18.36c3.82,0,7.06.75,9.7,2.25s4.65,3.59,6.01,6.27c1.37,2.68,2.05,5.77,2.05,9.27s-.69,6.57-2.07,9.21c-1.38,2.64-3.4,4.7-6.05,6.19-2.65,1.49-5.89,2.23-9.72,2.23h-15.4v-5.06h15.29c2.81,0,5.16-.52,7.05-1.55,1.89-1.03,3.31-2.49,4.27-4.36.96-1.87,1.44-4.09,1.44-6.67s-.48-4.82-1.44-6.73c-.96-1.91-2.39-3.4-4.29-4.46-1.9-1.06-4.26-1.59-7.07-1.59h-12.95v54.29h-5.18ZM543.55,397.85l-13.4-26.79h5.88l13.51,26.79h-6Z"/><path class="ak" d="M573.64,398.76c-3.82,0-7.14-.96-9.94-2.89-2.8-1.92-4.96-4.59-6.48-8-1.52-3.41-2.28-7.33-2.28-11.76s.76-8.41,2.28-11.84c1.52-3.44,3.63-6.13,6.35-8.08,2.71-1.95,5.83-2.93,9.36-2.93,2.37,0,4.61.46,6.72,1.37,2.11.92,3.98,2.3,5.63,4.14,1.64,1.84,2.93,4.14,3.87,6.89.94,2.75,1.41,5.95,1.41,9.61v2.15h-32.46v-4.62h29.76l-2.26,1.71c0-3.18-.51-6.02-1.54-8.5-1.02-2.48-2.48-4.43-4.37-5.85-1.89-1.42-4.14-2.13-6.75-2.13s-4.86.73-6.81,2.19c-1.95,1.46-3.47,3.4-4.55,5.83-1.09,2.43-1.63,5.13-1.63,8.1v2.59c0,3.45.56,6.46,1.67,9.04s2.7,4.58,4.76,6.01c2.06,1.43,4.48,2.15,7.27,2.15,1.95,0,3.67-.33,5.16-1,1.49-.66,2.75-1.57,3.77-2.73,1.02-1.15,1.78-2.43,2.28-3.84l4.77,1.27c-.62,2.02-1.65,3.88-3.11,5.57-1.46,1.7-3.28,3.04-5.46,4.04s-4.66,1.49-7.42,1.49Z"/><path class="ak" d="M616.17,398.68c-3.55,0-6.7-.96-9.44-2.89s-4.88-4.59-6.42-8c-1.54-3.41-2.31-7.33-2.31-11.76s.77-8.44,2.31-11.86c1.54-3.42,3.68-6.1,6.42-8.02,2.74-1.92,5.88-2.89,9.44-2.89,2.12,0,4.06.33,5.83,1,1.76.66,3.33,1.57,4.7,2.71,1.37,1.14,2.51,2.43,3.42,3.86.91,1.43,1.57,2.92,1.96,4.46l-4.77,1.23c-.25-.96-.67-1.93-1.28-2.92-.6-1-1.38-1.9-2.31-2.73-.94-.82-2.04-1.49-3.29-2.01-1.26-.52-2.68-.78-4.26-.78-2.76,0-5.13.8-7.09,2.41-1.96,1.61-3.46,3.76-4.5,6.45-1.04,2.69-1.55,5.73-1.55,9.1s.52,6.32,1.55,9.02,2.54,4.84,4.5,6.43c1.96,1.59,4.32,2.39,7.09,2.39,1.6,0,3.05-.26,4.33-.78,1.28-.52,2.39-1.2,3.33-2.05.94-.85,1.71-1.78,2.31-2.81.6-1.02,1.03-2.02,1.28-3l4.77,1.23c-.37,1.54-1.02,3.04-1.94,4.5-.93,1.46-2.08,2.77-3.46,3.94-1.38,1.17-2.97,2.09-4.76,2.77-1.79.68-3.74,1.01-5.87,1.01Z"/><path class="ak" d="M656.03,398.48c-2.76,0-5.22-.63-7.36-1.89-2.15-1.26-3.82-3.1-5.03-5.53-1.21-2.43-1.81-5.38-1.81-8.86v-28.3h4.96v27.9c0,3.66.95,6.54,2.85,8.64,1.9,2.1,4.44,3.14,7.62,3.14,2.15,0,4.08-.49,5.81-1.47,1.73-.98,3.09-2.41,4.09-4.28,1-1.87,1.5-4.11,1.5-6.71v-27.23h4.96v43.95h-4.81v-10.27h.89c-1.16,3.85-2.96,6.63-5.39,8.34-2.43,1.71-5.19,2.57-8.27,2.57Z"/><path class="ak" d="M685.6,397.85v-43.95h4.77v6.93h.33c.81-2.26,2.22-4.07,4.22-5.45s4.29-2.07,6.88-2.07c.39,0,.82.01,1.28.04.46.03.83.04,1.13.04v5.37c-.17-.05-.54-.11-1.09-.18s-1.17-.1-1.83-.1c-2.05,0-3.89.48-5.51,1.43-1.63.96-2.91,2.28-3.83,3.98-.92,1.7-1.39,3.68-1.39,5.93v28.02h-4.96Z"/><path class="ak" d="M712.5,397.85v-43.95h4.77v6.93h.33c.81-2.26,2.22-4.07,4.22-5.45s4.29-2.07,6.88-2.07c.39,0,.82.01,1.28.04.46.03.83.04,1.13.04v5.37c-.17-.05-.54-.11-1.09-.18s-1.17-.1-1.83-.1c-2.05,0-3.89.48-5.51,1.43-1.63.96-2.91,2.28-3.83,3.98-.92,1.7-1.39,3.68-1.39,5.93v28.02h-4.96Z"/><path class="ak" d="M741.63,345.46c-.99,0-1.84-.37-2.55-1.11-.72-.74-1.07-1.63-1.07-2.67s.36-1.92,1.07-2.65c.72-.73,1.57-1.09,2.55-1.09s1.84.37,2.55,1.09c.72.73,1.07,1.61,1.07,2.65s-.36,1.92-1.07,2.67c-.72.74-1.57,1.11-2.55,1.11ZM739.15,397.85v-43.95h4.96v43.95h-4.96Z"/><path class="ak" d="M761.06,370.62v27.23h-4.96v-43.95h4.77l.04,10.27h-.89c1.13-3.82,2.91-6.59,5.33-8.32,2.42-1.72,5.19-2.59,8.33-2.59,2.79,0,5.25.63,7.38,1.89,2.13,1.26,3.81,3.09,5.01,5.49,1.21,2.4,1.81,5.37,1.81,8.9v28.3h-4.96v-27.9c0-3.66-.95-6.54-2.85-8.64-1.9-2.1-4.44-3.14-7.62-3.14-2.15,0-4.08.49-5.81,1.47-1.73.98-3.09,2.4-4.09,4.26-1,1.86-1.5,4.1-1.5,6.73Z"/><path class="ak" d="M815.73,415.32c-2.84,0-5.35-.41-7.53-1.23s-4-1.97-5.44-3.44c-1.44-1.47-2.52-3.19-3.24-5.15l4.33-2.11c.54,1.27,1.31,2.46,2.31,3.56,1,1.1,2.28,1.98,3.85,2.65,1.57.66,3.47,1,5.72,1,3.7,0,6.66-1,8.86-3,2.21-2,3.31-5.04,3.31-9.1v-9.51h-.41c-.62,1.49-1.47,2.89-2.57,4.2-1.1,1.31-2.49,2.39-4.16,3.22-1.68.84-3.7,1.25-6.07,1.25-3.28,0-6.21-.88-8.77-2.65-2.57-1.76-4.58-4.28-6.03-7.54-1.46-3.26-2.18-7.15-2.18-11.66s.72-8.42,2.17-11.8c1.44-3.38,3.45-6.02,6.01-7.9,2.57-1.88,5.53-2.83,8.88-2.83,2.39,0,4.44.45,6.12,1.35,1.69.9,3.08,2.05,4.18,3.44,1.1,1.39,1.94,2.82,2.54,4.28h.41v-8.44h4.81v44.78c0,3.79-.74,6.93-2.22,9.39-1.48,2.47-3.51,4.29-6.09,5.47s-5.51,1.77-8.79,1.77ZM815.43,392.83c2.62,0,4.86-.69,6.74-2.07s3.32-3.35,4.33-5.91c1.01-2.56,1.52-5.61,1.52-9.14s-.49-6.49-1.48-9.13-2.42-4.71-4.31-6.21c-1.89-1.5-4.15-2.25-6.79-2.25s-4.95.76-6.85,2.29c-1.9,1.53-3.35,3.61-4.35,6.25-1,2.64-1.5,5.66-1.5,9.06s.51,6.42,1.52,9c1.01,2.57,2.46,4.57,4.35,5.99,1.89,1.42,4.16,2.13,6.83,2.13Z"/><path class="ak" d="M882.2,353.9v4.66h-22.21v-4.66h22.21ZM867.87,397.85v-50.71c0-2.31.47-4.26,1.42-5.85.95-1.59,2.21-2.8,3.79-3.62,1.58-.82,3.33-1.23,5.26-1.23,1.18,0,2.2.09,3.05.26s1.5.34,1.94.5l-1.07,4.66c-.37-.13-.85-.25-1.42-.36-.58-.11-1.25-.16-2.02-.16-1.97,0-3.47.58-4.5,1.73-1.02,1.15-1.54,2.85-1.54,5.08v49.72h-4.92Z"/><path class="ak" d="M893.01,345.46c-.99,0-1.84-.37-2.55-1.11-.72-.74-1.07-1.63-1.07-2.67s.36-1.92,1.07-2.65c.72-.73,1.57-1.09,2.55-1.09s1.84.37,2.55,1.09c.72.73,1.07,1.61,1.07,2.65s-.36,1.92-1.07,2.67c-.72.74-1.57,1.11-2.55,1.11ZM890.53,397.85v-43.95h4.96v43.95h-4.96Z"/><path class="ak" d="M912.44,370.62v27.23h-4.96v-43.95h4.77l.04,10.27h-.89c1.13-3.82,2.91-6.59,5.33-8.32,2.42-1.72,5.19-2.59,8.33-2.59,2.79,0,5.25.63,7.38,1.89,2.13,1.26,3.81,3.09,5.01,5.49,1.21,2.4,1.81,5.37,1.81,8.9v28.3h-4.96v-27.9c0-3.66-.95-6.54-2.85-8.64-1.9-2.1-4.44-3.14-7.62-3.14-2.15,0-4.08.49-5.81,1.47-1.73.98-3.09,2.4-4.09,4.26-1,1.86-1.5,4.1-1.5,6.73Z"/><path class="ak" d="M962.25,398.76c-2.49,0-4.77-.5-6.83-1.51-2.06-1.01-3.7-2.5-4.92-4.48-1.22-1.98-1.83-4.38-1.83-7.22,0-2.2.39-4.05,1.17-5.53.78-1.49,1.88-2.7,3.29-3.64,1.42-.94,3.1-1.69,5.03-2.25,1.94-.56,4.08-1,6.42-1.31,2.32-.32,4.27-.59,5.85-.82,1.58-.22,2.78-.6,3.61-1.11.83-.52,1.24-1.32,1.24-2.41v-.96c0-1.96-.38-3.65-1.15-5.06-.77-1.41-1.87-2.49-3.31-3.26s-3.2-1.15-5.27-1.15-3.71.34-5.2,1.01c-1.49.68-2.72,1.57-3.68,2.67-.96,1.1-1.64,2.33-2.04,3.68l-4.85-1.35c.74-2.47,1.9-4.49,3.48-6.07,1.58-1.58,3.43-2.76,5.55-3.54,2.12-.78,4.34-1.17,6.66-1.17,1.73,0,3.47.25,5.22.76,1.75.5,3.34,1.32,4.77,2.45,1.43,1.13,2.58,2.63,3.46,4.5.88,1.87,1.31,4.17,1.31,6.91v29.97h-4.89v-7.01h-.33c-.57,1.35-1.42,2.63-2.55,3.84-1.14,1.21-2.55,2.19-4.24,2.95-1.69.76-3.68,1.13-5.98,1.13ZM962.99,393.98c2.54,0,4.73-.58,6.57-1.75,1.84-1.17,3.25-2.75,4.24-4.74.99-1.99,1.48-4.18,1.48-6.57v-6.25c-.35.35-.92.66-1.72.96s-1.73.55-2.78.78c-1.05.23-2.12.42-3.2.58-1.09.16-2.1.3-3.03.44-2.27.29-4.22.76-5.85,1.41-1.63.65-2.88,1.53-3.74,2.65-.86,1.12-1.3,2.55-1.3,4.3s.41,3.2,1.22,4.42c.81,1.22,1.92,2.16,3.33,2.81s3,.97,4.77.97Z"/><path class="ak" d="M997.19,370.62v27.23h-4.96v-43.95h4.77l.04,10.27h-.89c1.13-3.82,2.91-6.59,5.33-8.32,2.42-1.72,5.19-2.59,8.33-2.59,2.79,0,5.25.63,7.38,1.89,2.13,1.26,3.81,3.09,5.01,5.49,1.21,2.4,1.81,5.37,1.81,8.9v28.3h-4.96v-27.9c0-3.66-.95-6.54-2.85-8.64-1.9-2.1-4.44-3.14-7.62-3.14-2.15,0-4.08.49-5.81,1.47-1.73.98-3.09,2.4-4.09,4.26-1,1.86-1.5,4.1-1.5,6.73Z"/><path class="ak" d="M1052,398.68c-3.55,0-6.7-.96-9.44-2.89s-4.88-4.59-6.42-8c-1.54-3.41-2.31-7.33-2.31-11.76s.77-8.44,2.31-11.86c1.54-3.42,3.68-6.1,6.42-8.02,2.74-1.92,5.88-2.89,9.44-2.89,2.12,0,4.06.33,5.83,1,1.76.66,3.33,1.57,4.7,2.71,1.37,1.14,2.51,2.43,3.42,3.86.91,1.43,1.57,2.92,1.96,4.46l-4.77,1.23c-.25-.96-.67-1.93-1.28-2.92-.6-1-1.38-1.9-2.31-2.73-.94-.82-2.04-1.49-3.29-2.01-1.26-.52-2.68-.78-4.26-.78-2.76,0-5.13.8-7.09,2.41-1.96,1.61-3.46,3.76-4.5,6.45-1.04,2.69-1.55,5.73-1.55,9.1s.52,6.32,1.55,9.02,2.54,4.84,4.5,6.43c1.96,1.59,4.32,2.39,7.09,2.39,1.6,0,3.05-.26,4.33-.78,1.28-.52,2.39-1.2,3.33-2.05.94-.85,1.71-1.78,2.31-2.81.6-1.02,1.03-2.02,1.28-3l4.77,1.23c-.37,1.54-1.02,3.04-1.94,4.5-.93,1.46-2.08,2.77-3.46,3.94-1.38,1.17-2.97,2.09-4.76,2.77-1.79.68-3.74,1.01-5.87,1.01Z"/><path class="ak" d="M1080.13,345.46c-.99,0-1.84-.37-2.55-1.11-.72-.74-1.07-1.63-1.07-2.67s.36-1.92,1.07-2.65c.72-.73,1.57-1.09,2.55-1.09s1.84.37,2.55,1.09c.72.73,1.07,1.61,1.07,2.65s-.36,1.92-1.07,2.67c-.72.74-1.57,1.11-2.55,1.11ZM1077.65,397.85v-43.95h4.96v43.95h-4.96Z"/><path class="ak" d="M1105.59,398.76c-2.49,0-4.77-.5-6.83-1.51-2.06-1.01-3.7-2.5-4.92-4.48-1.22-1.98-1.83-4.38-1.83-7.22,0-2.2.39-4.05,1.17-5.53.78-1.49,1.88-2.7,3.29-3.64,1.42-.94,3.1-1.69,5.03-2.25,1.94-.56,4.08-1,6.42-1.31,2.32-.32,4.27-.59,5.85-.82,1.58-.22,2.78-.6,3.61-1.11.83-.52,1.24-1.32,1.24-2.41v-.96c0-1.96-.38-3.65-1.15-5.06-.77-1.41-1.87-2.49-3.31-3.26s-3.2-1.15-5.27-1.15-3.71.34-5.2,1.01c-1.49.68-2.72,1.57-3.68,2.67-.96,1.1-1.64,2.33-2.04,3.68l-4.85-1.35c.74-2.47,1.9-4.49,3.48-6.07,1.58-1.58,3.43-2.76,5.55-3.54,2.12-.78,4.34-1.17,6.66-1.17,1.73,0,3.47.25,5.22.76,1.75.5,3.34,1.32,4.77,2.45,1.43,1.13,2.58,2.63,3.46,4.5.88,1.87,1.31,4.17,1.31,6.91v29.97h-4.89v-7.01h-.33c-.57,1.35-1.42,2.63-2.55,3.84-1.14,1.21-2.55,2.19-4.24,2.95-1.69.76-3.68,1.13-5.98,1.13ZM1106.33,393.98c2.54,0,4.73-.58,6.57-1.75,1.84-1.17,3.25-2.75,4.24-4.74.99-1.99,1.48-4.18,1.48-6.57v-6.25c-.35.35-.92.66-1.72.96s-1.73.55-2.78.78c-1.05.23-2.12.42-3.2.58-1.09.16-2.1.3-3.03.44-2.27.29-4.22.76-5.85,1.41-1.63.65-2.88,1.53-3.74,2.65-.86,1.12-1.3,2.55-1.3,4.3s.41,3.2,1.22,4.42c.81,1.22,1.92,2.16,3.33,2.81s3,.97,4.77.97Z"/><path class="ak" d="M1140.53,338.54v59.31h-4.96v-59.31h4.96Z"/><path class="ak" d="M1173.14,414.48v-60.58h4.81v8.4h.44c.59-1.46,1.43-2.88,2.52-4.26,1.09-1.38,2.47-2.52,4.16-3.42,1.69-.9,3.73-1.35,6.12-1.35,3.38,0,6.35.95,8.9,2.85s4.55,4.55,5.98,7.96c1.43,3.41,2.15,7.37,2.15,11.88s-.71,8.55-2.13,11.96c-1.42,3.41-3.4,6.07-5.96,7.98-2.55,1.91-5.52,2.87-8.9,2.87-2.37,0-4.4-.46-6.09-1.37-1.69-.92-3.08-2.07-4.16-3.46-1.09-1.39-1.94-2.83-2.55-4.32h-.33v24.88h-4.96ZM1190.57,393.9c2.66,0,4.93-.78,6.81-2.33,1.87-1.55,3.31-3.69,4.31-6.41,1-2.72,1.5-5.8,1.5-9.25s-.49-6.51-1.48-9.2c-.99-2.68-2.42-4.78-4.31-6.31-1.89-1.53-4.16-2.29-6.83-2.29s-4.9.75-6.79,2.25c-1.89,1.5-3.33,3.59-4.31,6.27-.99,2.68-1.48,5.77-1.48,9.27s.49,6.65,1.48,9.35c.99,2.71,2.42,4.82,4.31,6.35,1.89,1.53,4.15,2.29,6.79,2.29Z"/><path class="ak" d="M1222.99,338.54v59.31h-4.96v-59.31h4.96Z"/><path class="ak" d="M1245.97,398.76c-2.49,0-4.77-.5-6.83-1.51-2.06-1.01-3.7-2.5-4.92-4.48-1.22-1.98-1.83-4.38-1.83-7.22,0-2.2.39-4.05,1.17-5.53.78-1.49,1.88-2.7,3.29-3.64,1.42-.94,3.1-1.69,5.03-2.25,1.94-.56,4.08-1,6.42-1.31,2.32-.32,4.27-.59,5.85-.82,1.58-.22,2.78-.6,3.61-1.11.83-.52,1.24-1.32,1.24-2.41v-.96c0-1.96-.38-3.65-1.15-5.06-.77-1.41-1.87-2.49-3.31-3.26s-3.2-1.15-5.27-1.15-3.71.34-5.2,1.01c-1.49.68-2.72,1.57-3.68,2.67-.96,1.1-1.64,2.33-2.04,3.68l-4.85-1.35c.74-2.47,1.9-4.49,3.48-6.07,1.58-1.58,3.43-2.76,5.55-3.54,2.12-.78,4.34-1.17,6.66-1.17,1.73,0,3.47.25,5.22.76,1.75.5,3.34,1.32,4.77,2.45,1.43,1.13,2.58,2.63,3.46,4.5.88,1.87,1.31,4.17,1.31,6.91v29.97h-4.89v-7.01h-.33c-.57,1.35-1.42,2.63-2.55,3.84-1.14,1.21-2.55,2.19-4.24,2.95-1.69.76-3.68,1.13-5.98,1.13ZM1246.71,393.98c2.54,0,4.73-.58,6.57-1.75,1.84-1.17,3.25-2.75,4.24-4.74.99-1.99,1.48-4.18,1.48-6.57v-6.25c-.35.35-.92.66-1.72.96s-1.73.55-2.78.78c-1.05.23-2.12.42-3.2.58-1.09.16-2.1.3-3.03.44-2.27.29-4.22.76-5.85,1.41-1.63.65-2.88,1.53-3.74,2.65-.86,1.12-1.3,2.55-1.3,4.3s.41,3.2,1.22,4.42c.81,1.22,1.92,2.16,3.33,2.81s3,.97,4.77.97Z"/><path class="ak" d="M1280.91,370.62v27.23h-4.96v-43.95h4.77l.04,10.27h-.89c1.13-3.82,2.91-6.59,5.33-8.32,2.42-1.72,5.19-2.59,8.33-2.59,2.79,0,5.25.63,7.38,1.89,2.13,1.26,3.81,3.09,5.01,5.49,1.21,2.4,1.81,5.37,1.81,8.9v28.3h-4.96v-27.9c0-3.66-.95-6.54-2.85-8.64-1.9-2.1-4.44-3.14-7.62-3.14-2.15,0-4.08.49-5.81,1.47-1.73.98-3.09,2.4-4.09,4.26-1,1.86-1.5,4.1-1.5,6.73Z"/><path class="ak" d="M1324.7,370.62v27.23h-4.96v-43.95h4.77l.04,10.27h-.89c1.13-3.82,2.91-6.59,5.33-8.32,2.42-1.72,5.19-2.59,8.33-2.59,2.79,0,5.25.63,7.38,1.89,2.13,1.26,3.81,3.09,5.01,5.49,1.21,2.4,1.81,5.37,1.81,8.9v28.3h-4.96v-27.9c0-3.66-.95-6.54-2.85-8.64-1.9-2.1-4.44-3.14-7.62-3.14-2.15,0-4.08.49-5.81,1.47-1.73.98-3.09,2.4-4.09,4.26-1,1.86-1.5,4.1-1.5,6.73Z"/><path class="ak" d="M1366,345.46c-.99,0-1.84-.37-2.55-1.11-.72-.74-1.07-1.63-1.07-2.67s.36-1.92,1.07-2.65c.72-.73,1.57-1.09,2.55-1.09s1.84.37,2.55,1.09c.72.73,1.07,1.61,1.07,2.65s-.36,1.92-1.07,2.67c-.72.74-1.57,1.11-2.55,1.11ZM1363.52,397.85v-43.95h4.96v43.95h-4.96Z"/><path class="ak" d="M1385.43,370.62v27.23h-4.96v-43.95h4.77l.04,10.27h-.89c1.13-3.82,2.91-6.59,5.33-8.32,2.42-1.72,5.19-2.59,8.33-2.59,2.79,0,5.25.63,7.38,1.89,2.13,1.26,3.81,3.09,5.01,5.49,1.21,2.4,1.81,5.37,1.81,8.9v28.3h-4.96v-27.9c0-3.66-.95-6.54-2.85-8.64-1.9-2.1-4.44-3.14-7.62-3.14-2.15,0-4.08.49-5.81,1.47-1.73.98-3.09,2.4-4.09,4.26-1,1.86-1.5,4.1-1.5,6.73Z"/><path class="ak" d="M1440.09,415.32c-2.84,0-5.35-.41-7.53-1.23s-4-1.97-5.44-3.44c-1.44-1.47-2.52-3.19-3.24-5.15l4.33-2.11c.54,1.27,1.31,2.46,2.31,3.56,1,1.1,2.28,1.98,3.85,2.65,1.57.66,3.47,1,5.72,1,3.7,0,6.66-1,8.86-3,2.21-2,3.31-5.04,3.31-9.1v-9.51h-.41c-.62,1.49-1.47,2.89-2.57,4.2-1.1,1.31-2.49,2.39-4.16,3.22-1.68.84-3.7,1.25-6.07,1.25-3.28,0-6.21-.88-8.77-2.65-2.57-1.76-4.58-4.28-6.03-7.54-1.46-3.26-2.18-7.15-2.18-11.66s.72-8.42,2.17-11.8c1.44-3.38,3.45-6.02,6.01-7.9,2.57-1.88,5.53-2.83,8.88-2.83,2.39,0,4.44.45,6.12,1.35,1.69.9,3.08,2.05,4.18,3.44,1.1,1.39,1.94,2.82,2.54,4.28h.41v-8.44h4.81v44.78c0,3.79-.74,6.93-2.22,9.39-1.48,2.47-3.51,4.29-6.09,5.47s-5.51,1.77-8.79,1.77ZM1439.8,392.83c2.62,0,4.86-.69,6.74-2.07s3.32-3.35,4.33-5.91c1.01-2.56,1.52-5.61,1.52-9.14s-.49-6.49-1.48-9.13-2.42-4.71-4.31-6.21c-1.89-1.5-4.15-2.25-6.79-2.25s-4.95.76-6.85,2.29c-1.9,1.53-3.35,3.61-4.35,6.25-1,2.64-1.5,5.66-1.5,9.06s.51,6.42,1.52,9c1.01,2.57,2.46,4.57,4.35,5.99,1.89,1.42,4.16,2.13,6.83,2.13Z"/></svg>