<?xml version="1.0" encoding="UTF-8"?><svg id="f" xmlns="http://www.w3.org/2000/svg" xmlns:xlink="http://www.w3.org/1999/xlink" viewBox="0 0 1457.19 494.26"><defs><style>.ab{fill:url(#k);}.ac{fill:#153f3b;}.ad{fill:url(#l);}.ae{fill:url(#h);}.af{fill:url(#j);}.ag{fill:url(#g);}.ah{fill:url(#m);}.ai{fill:url(#i);}.aj{fill:#173c39;}.ak{fill:url(#n);}</style><linearGradient id="g" x1="-584.61" y1="-2721.31" x2="-220.8" y2="-2357.5" gradientTransform="translate(564 -2355.2903) scale(1 -1)" gradientUnits="userSpaceOnUse"><stop offset=".1" stop-color="#00a594"/><stop offset=".45" stop-color="#2f7d73"/><stop offset=".93" stop-color="#8fbdb1"/></linearGradient><linearGradient id="h" x1="-380.41" y1="-2408.64" x2="-116.14" y2="-2672.92" gradientTransform="translate(564 -2355.2903) scale(1 -1)" gradientUnits="userSpaceOnUse"><stop offset=".15" stop-color="#e8c58f"/><stop offset=".55" stop-color="#d7af72"/><stop offset=".95" stop-color="#b88d55"/></linearGradient><linearGradient id="i" x1="-460.18" y1="-2415.28" x2="-153.9" y2="-2721.56" gradientTransform="translate(564 -2355.2903) scale(1 -1)" gradientUnits="userSpaceOnUse"><stop offset=".02" stop-color="#f4dfc0" stop-opacity="0"/><stop offset=".43" stop-color="#f1d3a0" stop-opacity=".85"/><stop offset=".9" stop-color="#c59a61" stop-opacity="0"/></linearGradient><linearGradient id="j" x1="-493.7" y1="-2427.08" x2="-309.67" y2="-2611.95" gradientTransform="translate(564 -2355.2903) scale(1 -1)" gradientUnits="userSpaceOnUse"><stop offset=".03" stop-color="#0e6f66"/><stop offset=".45" stop-color="#167f75" stop-opacity=".65"/><stop offset=".93" stop-color="#5fa99a" stop-opacity="0"/></linearGradient><linearGradient id="k" x1="-441.27" y1="-2849.81" x2="-180.79" y2="-2589.33" gradientTransform="translate(564 -2355.2903) scale(1 -1)" gradientUnits="userSpaceOnUse"><stop offset=".11" stop-color="#8fbdb1"/><stop offset=".55" stop-color="#bfd5cb"/><stop offset="1" stop-color="#c7d3ce"/></linearGradient><linearGradient id="l" x1="-299.31" y1="-2612.5" x2="-489.36" y2="-2802.56" gradientTransform="translate(564 -2355.2903) scale(1 -1)" gradientUnits="userSpaceOnUse"><stop offset=".28" stop-color="#00a594"/><stop offset=".52" stop-color="#2f7d73" stop-opacity=".55"/><stop offset=".83" stop-color="#8fbdb1" stop-opacity="0"/></linearGradient><linearGradient id="m" x1="-307.23" y1="-2581.76" x2="-161.06" y2="-2727.95" gradientTransform="translate(564 -2355.2903) scale(1 -1)" gradientUnits="userSpaceOnUse"><stop offset=".04" stop-color="#4f8f84"/><stop offset=".55" stop-color="#7fafa4" stop-opacity=".42"/><stop offset="1" stop-color="#bfd5cb" stop-opacity="0"/></linearGradient><linearGradient id="n" x1="-453.74" y1="-2777.01" x2="-271.13" y2="-2594.39" gradientTransform="translate(564 -2355.2903) scale(1 -1)" gradientUnits="userSpaceOnUse"><stop offset=".05" stop-color="#bfd8d0" stop-opacity="0"/><stop offset=".3" stop-color="#a9cdc3"/><stop offset=".65" stop-color="#ddebe6"/><stop offset="1" stop-color="#ddebe6" stop-opacity="0"/></linearGradient></defs><path class="ac" d="M388.65,91.65l-121.41-70.06c-29.53-17-65.77-17-95.3,0L50.54,91.65C21.09,108.65,2.96,140.1,2.96,174.09v140.13c0,33.99,18.12,65.44,47.58,82.44l121.41,70.06c29.53,17,65.77,17,95.3,0l121.41-70.06c.97-.6,1.94-1.19,2.83-1.79,27.82-17.29,44.75-47.78,44.75-80.65v-140.13c0-33.99-18.12-65.44-47.58-82.44h0ZM281.57,216.64c15.21,15.21,15.21,39.8,0,55.01l-34.46,34.44c-15.21,15.21-39.82,15.21-55.03,0l-34.46-34.44c-15.21-15.21-15.21-39.8,0-55.01l34.46-34.44c15.21-15.21,39.82-15.21,55.03,0l34.46,34.44h0Z"/><path class="ag" d="M172.54,107.68l74.57,74.54c-15.21-15.21-39.82-15.21-55.03,0l-34.46,34.44c-15.21,15.21-15.21,39.8,0,55.01l34.46,34.44c15.21,15.21,39.82,15.21,55.03,0l-74.57,74.54c-32.29,32.35-82.33,38.91-122.01,16.03-29.45-17.01-47.58-48.46-47.58-82.45v-140.13c0-33.98,18.13-65.43,47.58-82.43,39.67-22.88,89.71-16.32,122.01,16.03h0Z"/><path class="ae" d="M436.23,174.09v140.13c0,32.87-16.93,63.36-44.75,80.65,20.88-14.39,24.02-44.65,5.67-62.91l-150.04-149.74-74.57-74.54c-32.29-32.35-82.33-38.91-122.01-16.03L171.95,21.59c29.53-17,65.77-17,95.3,0l121.41,70.06c29.46,17,47.58,48.45,47.58,82.44Z"/><path class="ai" d="M414.34,365.16c1.24-13.76-3.66-27.24-13.43-36.96l-150.04-149.74-74.56-74.54c-20.04-20.08-46.75-31.15-75.18-31.15-2.59,0-5.18.1-7.75.29v5.35c2.58-.2,5.17-.33,7.75-.33,26.15,0,52,10.13,71.42,29.58l74.57,74.54,150.04,149.74c9.62,9.58,13.28,22.44,11.62,34.6h5.41c.06-.47.1-.92.14-1.39h0Z"/><path class="af" d="M247.11,182.21l-74.57-74.54c-28.12-28.17-69.7-36.77-106.16-23.41-.36.14-.74.29-1.11.43h-.02c-5.02,1.9-9.95,4.22-14.72,6.97-4.56,2.64-8.82,5.66-12.81,8.93-1.04.85-2.07,1.69-3.07,2.59,38.75-16.98,84.43-8.87,114.81,21.56l51.1,51.07c14.82-8.33,33.91-6.22,46.54,6.4h0Z"/><path class="ab" d="M397.15,331.95c18.35,18.26,15.21,48.52-5.67,62.91-.9.6-1.87,1.19-2.83,1.79l-121.41,70.06c-29.53,17-65.77,17-95.3,0l-121.41-70.06c39.67,22.88,89.71,16.32,122.01-16.03l74.57-74.54,34.46-34.44c15.21-15.21,15.21-39.8,0-55.01l115.58,115.31h0Z"/><path class="ad" d="M247.11,306.09c-12.14,12.13-30.18,14.42-44.74,7.19l-67.38,67.35c-14.78,14.8-33.28,24.14-52.8,27.78,32.2,6.13,66.22-3.63,90.33-27.78l74.57-74.54h0Z"/><path class="ah" d="M281.57,216.64c12.59,12.59,14.59,31.55,6.34,46.36l91.91,91.73c11.23,11.19,14.56,26.74,10.9,40.61.26-.16.53-.32.77-.49,20.88-14.39,24.02-44.65,5.67-62.91l-115.58-115.31h0Z"/><path class="ak" d="M298.12,240.66h-5.31c.99,11.08-2.74,22.5-11.24,30.99l-34.46,34.44-74.57,74.54c-19.42,19.46-45.27,29.58-71.42,29.58-2.58,0-5.17-.13-7.75-.33v5.35c2.58.19,5.16.29,7.75.29,28.44,0,55.13-11.06,75.17-31.15l74.57-74.54,34.46-34.44c9.51-9.5,13.78-22.3,12.79-34.75v.02Z"/><path class="aj" d="M582.71,157.91c3.46,5.33,7.76,9.97,12.92,13.9,5.15,3.93,12.12,8.61,20.92,14.04,9.54,5.99,17.08,11.14,22.6,15.44,5.52,4.31,10.2,9.59,14.04,15.86,3.83,6.27,5.75,13.62,5.75,22.04,0,9.55-2.48,18.06-7.44,25.55-4.96,7.49-11.98,13.34-21.06,17.55-9.08,4.21-19.42,6.32-31.02,6.32-7.86,0-15.96-1.03-24.29-3.09-8.33-2.06-14.65-4.58-18.95-7.58-1.68-1.12-2.62-2.9-2.81-5.33l-1.68-42.67v-.28c0-.75.46-1.17,1.4-1.26.93-.09,1.5.24,1.68.98,6.18,15.54,13.24,28.26,21.2,38.18,7.95,9.92,18.11,14.88,30.46,14.88,8.04,0,14.78-2.2,20.21-6.6,5.43-4.4,8.14-11.74,8.14-22.04,0-8.23-1.82-15.44-5.47-21.62-3.65-6.18-8.14-11.32-13.48-15.44-5.33-4.12-12.59-9.17-21.76-15.16-8.98-5.8-16-10.71-21.06-14.74-5.05-4.02-9.36-8.98-12.91-14.88-3.56-5.9-5.33-12.77-5.33-20.63,0-9.73,2.71-17.97,8.14-24.71,5.43-6.74,12.49-11.74,21.2-15.02,8.7-3.27,17.83-4.91,27.37-4.91,6.36,0,12.73.61,19.09,1.83,6.36,1.22,11.7,2.76,16,4.63,2.81,1.12,4.21,2.9,4.21,5.33l.84,38.18c0,.56-.52.94-1.54,1.12-1.03.19-1.64,0-1.83-.56-3.75-11.41-8.75-21.76-15.02-31.02-6.27-9.26-15.68-13.9-28.21-13.9-8.42,0-15.12,2.43-20.07,7.3-4.96,4.87-7.44,11.51-7.44,19.93,0,6.93,1.73,13.05,5.19,18.39Z"/><path class="aj" d="M812.78,267.54c.56,0,1.03.47,1.4,1.4.37.94.28,1.59-.28,1.96l-36.78,17.69-1.12.28c-1.87,0-3.56-2.11-5.05-6.32-1.5-4.21-2.34-9.87-2.53-16.99-13.1,15.16-26.95,22.74-41.55,22.74-10.11,0-17.97-3.13-23.58-9.4-5.62-6.27-8.42-14.83-8.42-25.69v-41.83c0-12.73-2.9-19.09-8.7-19.09-1.87,0-4.49.75-7.86,2.25h-.28c-.75,0-1.31-.46-1.68-1.4-.38-.93-.28-1.59.28-1.97l35.66-16.56,1.12-.28c.75,0,1.59.38,2.53,1.12.93.75,1.4,1.4,1.4,1.96v63.73c0,10.48,1.92,18.3,5.75,23.44,3.83,5.15,9.69,7.72,17.55,7.72,4.68,0,9.5-1.12,14.46-3.37,4.96-2.25,9.41-5.33,13.34-9.26v-48.29c0-6.55-.7-11.37-2.11-14.46-1.4-3.09-3.61-4.63-6.6-4.63-1.68,0-4.31.75-7.86,2.25h-.28c-.75,0-1.31-.51-1.68-1.54-.38-1.03-.19-1.64.56-1.83l35.37-16.56c.37-.18.84-.28,1.4-.28.75,0,1.59.38,2.53,1.12.93.75,1.4,1.4,1.4,1.96v76.08c0,6.55.65,11.14,1.97,13.76,1.31,2.62,3.46,3.93,6.46,3.93,2.25,0,6.46-1.12,12.63-3.37l.56-.28Z"/><path class="aj" d="M926.06,179.11c7.02,3.93,12.63,9.83,16.84,17.69,4.21,7.86,6.32,17.41,6.32,28.64,0,13.48-2.86,24.99-8.56,34.53-5.71,9.55-13.24,16.75-22.6,21.62-9.36,4.86-19.28,7.3-29.76,7.3-14.6,0-27.7-4.3-39.31-12.91l-23.86,10.95h-.56c-.75,0-1.22-.33-1.4-.98-.19-.66,0-1.17.56-1.54,5.05-3.18,8.75-6.88,11.09-11.09,2.34-4.21,3.51-9.87,3.51-16.99V119.03c0-6.55-.66-11.27-1.97-14.18-1.31-2.9-3.56-4.35-6.74-4.35-2.25,0-5.9,1.12-10.95,3.37h-.28c-.75,0-1.31-.46-1.68-1.4-.38-.93-.38-1.59,0-1.96l39.02-18.53,1.4-.28c.75,0,1.59.38,2.53,1.12.93.75,1.4,1.4,1.4,1.96v109.21c6.18-6.36,12.63-11.41,19.37-15.16,6.74-3.74,14.32-5.62,22.74-5.62s15.86,1.97,22.88,5.9ZM916.65,270.91c4.87-8.23,7.3-19.93,7.3-35.09,0-16.47-2.95-28.87-8.84-37.2-5.9-8.33-13.81-12.49-23.72-12.49s-19.65,4.31-30.32,12.91v42.96c0,9.73,1.83,17.69,5.47,23.86,3.65,6.18,8.14,10.62,13.48,13.34,5.33,2.72,10.53,4.07,15.58,4.07,9.17,0,16.19-4.12,21.06-12.35Z"/><path class="aj" d="M1072.47,85.76c5.8,2.9,8.7,6.79,8.7,11.65,0,3.75-1.26,6.69-3.79,8.84-2.53,2.15-5.47,3.23-8.84,3.23-3.75,0-6.6-.84-8.56-2.53-1.97-1.68-3.79-4.3-5.47-7.86-2.25-3.93-4.54-6.88-6.88-8.84-2.34-1.96-5.66-2.95-9.97-2.95-9.36,0-16.75,6.08-22.18,18.25-5.43,12.17-8.14,30.98-8.14,56.43v17.41c9.73-.18,20.59-1.03,32.57-2.53.56,0,1.03.66,1.4,1.97.37,1.31.56,2.9.56,4.77,0,1.68-.28,3.37-.84,5.05s-1.22,2.43-1.96,2.25c-11.42-2.62-22-4.02-31.72-4.21v75.8c0,5.8.61,10.02,1.82,12.63,1.22,2.62,3.6,4.4,7.16,5.33,3.55.94,9.17,1.4,16.85,1.4.75,0,1.12.56,1.12,1.68s-.38,1.68-1.12,1.68l-18.81-.28c-4.12-.18-10.39-.28-18.81-.28l-16.56.28c-2.81.19-6.83.28-12.07.28-.75,0-1.12-.56-1.12-1.68s.37-1.68,1.12-1.68c5.05,0,8.8-.51,11.23-1.54,2.43-1.03,4.11-2.85,5.05-5.47.93-2.62,1.4-6.74,1.4-12.35v-63.17c0-6.18-1.22-10.11-3.65-11.79-2.43-1.68-7.49-2.53-15.16-2.53-.56,0-.84-.84-.84-2.53,0-1.5.28-2.25.84-2.25,6.92,0,11.65-.89,14.18-2.67,2.53-1.78,3.88-5,4.07-9.69.93-30.51,6.64-52.54,17.13-66.12,10.48-13.57,26.2-20.35,47.17-20.35,10.29,0,18.34,1.45,24.14,4.35Z"/><path class="aj" d="M1080.61,280.88c-8.61-5.33-15.26-12.54-19.93-21.62-4.68-9.08-7.02-18.95-7.02-29.62,0-12.16,3.04-22.5,9.12-31.02,6.08-8.51,13.85-14.88,23.3-19.09,9.45-4.21,19.13-6.32,29.06-6.32,11.42,0,21.38,2.72,29.9,8.14,8.51,5.43,15.02,12.59,19.51,21.48,4.49,8.89,6.74,18.39,6.74,28.5,0,11.23-2.76,21.25-8.28,30.04-5.52,8.8-12.96,15.58-22.32,20.35-9.36,4.77-19.47,7.16-30.32,7.16s-21.15-2.67-29.76-8ZM1137.74,272.32c4.4-7.3,6.6-17.97,6.6-32.01,0-12.54-1.73-23.49-5.19-32.85-3.47-9.36-8.14-16.47-14.04-21.34-5.9-4.87-12.31-7.3-19.23-7.3-8.42,0-14.79,3.47-19.09,10.39-4.31,6.93-6.46,17.13-6.46,30.6,0,12.17,1.64,23.07,4.91,32.71,3.27,9.64,7.86,17.17,13.76,22.6,5.9,5.43,12.49,8.14,19.79,8.14,8.23,0,14.55-3.65,18.95-10.95Z"/><path class="aj" d="M1190.38,283.55c0-1.12.28-1.68.84-1.68,6.18,0,10.39-1.36,12.63-4.07,2.25-2.71,3.37-7.81,3.37-15.3V119.03c0-6.55-.61-11.27-1.83-14.18-1.22-2.9-3.42-4.35-6.6-4.35-2.81,0-6.55,1.12-11.23,3.37h-.28c-.75,0-1.31-.46-1.68-1.4-.38-.93-.38-1.59,0-1.96l39.58-18.53,1.12-.28c.75,0,1.64.38,2.67,1.12,1.03.75,1.54,1.4,1.54,1.96v177.71c0,7.68,1.03,12.82,3.09,15.44,2.06,2.62,6.27,3.93,12.63,3.93.56,0,.84.56.84,1.68s-.28,1.68-.84,1.68c-4.49,0-8.14-.09-10.95-.28l-16.56-.28-16.28.28c-2.81.19-6.55.28-11.23.28-.56,0-.84-.56-.84-1.68Z"/><path class="aj" d="M1266.74,283.55c0-1.12.28-1.68.84-1.68,6.36,0,10.57-1.31,12.63-3.93,2.06-2.62,3.09-7.76,3.09-15.44v-51.1c0-6.36-.66-10.99-1.97-13.9-1.31-2.9-3.56-4.35-6.74-4.35-2.81,0-6.46,1.12-10.95,3.37h-.28c-.75,0-1.31-.46-1.68-1.4-.38-.93-.28-1.59.28-1.96l40.43-18.81.84-.28c.75,0,1.54.42,2.39,1.26.84.84,1.26,1.54,1.26,2.11v5.9c-.38,7.86-.56,17.12-.56,27.79v51.38c0,7.68,1.07,12.82,3.23,15.44,2.15,2.62,6.41,3.93,12.77,3.93.56,0,.84.56.84,1.68s-.28,1.68-.84,1.68c-4.68,0-8.42-.09-11.23-.28l-16.28-.28-16.28.28c-2.62.19-6.27.28-10.95.28-.56,0-.84-.56-.84-1.68ZM1282.04,140.64c-2.72-2.62-4.07-6.36-4.07-11.23s1.36-8.28,4.07-10.81c2.71-2.53,6.5-3.79,11.37-3.79s8.33,1.26,10.95,3.79c2.62,2.53,3.93,6.13,3.93,10.81s-1.26,8.61-3.79,11.23c-2.53,2.62-6.22,3.93-11.09,3.93s-8.66-1.31-11.37-3.93Z"/><path class="aj" d="M1366.13,280.88c-8.61-5.33-15.26-12.54-19.93-21.62-4.68-9.08-7.02-18.95-7.02-29.62,0-12.16,3.04-22.5,9.12-31.02,6.08-8.51,13.85-14.88,23.3-19.09,9.45-4.21,19.13-6.32,29.06-6.32,11.41,0,21.38,2.72,29.9,8.14,8.51,5.43,15.02,12.59,19.51,21.48,4.49,8.89,6.74,18.39,6.74,28.5,0,11.23-2.76,21.25-8.28,30.04-5.52,8.8-12.96,15.58-22.32,20.35-9.36,4.77-19.47,7.16-30.32,7.16s-21.15-2.67-29.76-8ZM1423.26,272.32c4.4-7.3,6.6-17.97,6.6-32.01,0-12.54-1.73-23.49-5.19-32.85-3.47-9.36-8.14-16.47-14.04-21.34-5.9-4.87-12.31-7.3-19.23-7.3-8.42,0-14.79,3.47-19.09,10.39-4.31,6.93-6.46,17.13-6.46,30.6,0,12.17,1.64,23.07,4.91,32.71,3.27,9.64,7.86,17.17,13.76,22.6,5.9,5.43,12.49,8.14,19.79,8.14,8.23,0,14.55-3.65,18.95-10.95Z"/><path class="aj" d="M555.57,352.89v-5.49h44.34v5.49h-19.27v59.4h-5.71v-59.4h-19.35Z"/><path class="aj" d="M605.21,412.29v-48.08h5.22v7.58h.36c.89-2.47,2.43-4.46,4.62-5.97,2.19-1.51,4.7-2.26,7.53-2.26.43,0,.9.02,1.4.04.5.03.91.04,1.23.04v5.88c-.19-.06-.59-.12-1.19-.2s-1.28-.11-2-.11c-2.24,0-4.25.52-6.03,1.57-1.78,1.04-3.18,2.5-4.19,4.35-1.01,1.86-1.52,4.02-1.52,6.49v30.66h-5.43Z"/><path class="aj" d="M645.78,413.29c-2.73,0-5.22-.55-7.47-1.66-2.25-1.1-4.05-2.74-5.38-4.9s-2-4.8-2-7.9c0-2.41.42-4.43,1.28-6.05.85-1.62,2.05-2.95,3.6-3.98,1.55-1.03,3.39-1.85,5.51-2.46,2.12-.61,4.46-1.09,7.03-1.44,2.54-.35,4.67-.65,6.4-.89,1.73-.25,3.04-.65,3.95-1.22.9-.57,1.36-1.44,1.36-2.63v-1.04c0-2.15-.42-3.99-1.26-5.53-.84-1.54-2.04-2.73-3.62-3.57-1.58-.84-3.5-1.26-5.77-1.26s-4.06.37-5.69,1.11-2.98,1.71-4.03,2.92c-1.05,1.2-1.79,2.55-2.23,4.03l-5.3-1.48c.81-2.7,2.08-4.91,3.81-6.64s3.75-3.02,6.07-3.88c2.32-.86,4.75-1.28,7.29-1.28,1.89,0,3.79.28,5.71.83,1.92.55,3.66,1.44,5.22,2.68,1.57,1.23,2.83,2.88,3.79,4.92.96,2.05,1.44,4.57,1.44,7.56v32.79h-5.34v-7.66h-.37c-.62,1.48-1.55,2.88-2.79,4.2-1.24,1.32-2.79,2.4-4.64,3.22s-4.03,1.24-6.54,1.24ZM646.59,408.07c2.78,0,5.18-.64,7.19-1.92s3.56-3,4.64-5.18c1.08-2.18,1.62-4.57,1.62-7.18v-6.84c-.38.38-1.01.73-1.88,1.04-.88.32-1.89.6-3.04.85s-2.31.46-3.5.63c-1.19.17-2.29.33-3.32.48-2.48.32-4.62.83-6.4,1.55-1.78.71-3.14,1.68-4.09,2.9-.95,1.22-1.42,2.79-1.42,4.7s.45,3.5,1.34,4.83c.89,1.34,2.11,2.36,3.64,3.07,1.54.71,3.28,1.07,5.22,1.07Z"/><path class="aj" d="M696.06,413.2c-3.89,0-7.33-1.05-10.32-3.16s-5.34-5.02-7.03-8.75c-1.69-3.73-2.53-8.02-2.53-12.87s.84-9.23,2.53-12.98c1.69-3.75,4.03-6.67,7.03-8.77s6.44-3.16,10.32-3.16c2.32,0,4.45.36,6.38,1.09s3.64,1.71,5.14,2.96,2.75,2.66,3.75,4.22c1,1.57,1.71,3.19,2.15,4.88l-5.22,1.35c-.27-1.04-.74-2.11-1.4-3.2-.66-1.09-1.51-2.08-2.53-2.98-1.03-.9-2.23-1.63-3.6-2.2-1.38-.57-2.93-.85-4.66-.85-3.02,0-5.61.88-7.75,2.63-2.15,1.76-3.79,4.11-4.92,7.05-1.13,2.95-1.7,6.26-1.7,9.95s.57,6.92,1.7,9.86c1.13,2.95,2.77,5.29,4.92,7.03,2.15,1.74,4.73,2.61,7.75,2.61,1.75,0,3.33-.28,4.74-.85,1.4-.57,2.62-1.31,3.64-2.24,1.03-.93,1.87-1.95,2.53-3.07.66-1.12,1.13-2.21,1.4-3.29l5.22,1.35c-.41,1.68-1.11,3.32-2.13,4.92-1.01,1.6-2.27,3.03-3.79,4.31-1.51,1.28-3.25,2.29-5.2,3.03-1.96.74-4.1,1.11-6.42,1.11Z"/><path class="aj" d="M724.12,412.29v-64.88h5.43v64.88h-5.43ZM729.06,394.22v-7.49h1.01l20.81-22.51h6.92l-20.61,22.3-.61.09-7.53,7.62ZM752.14,412.29l-18.18-24.65,3.89-4.05,21.26,28.7h-6.96Z"/><path class="aj" d="M771.45,412.81c-1.19,0-2.2-.45-3.04-1.35s-1.25-1.99-1.25-3.27.42-2.37,1.25-3.27c.84-.9,1.85-1.35,3.04-1.35s2.2.45,3.04,1.35c.84.9,1.25,1.99,1.25,3.27s-.42,2.37-1.25,3.27c-.84.9-1.85,1.35-3.04,1.35Z"/><path class="aj" d="M812.67,412.29v-64.88h19.96c4.18,0,7.72.86,10.61,2.59,2.89,1.73,5.08,4.09,6.58,7.08,1.5,2.99,2.25,6.4,2.25,10.23s-.75,7.25-2.25,10.26c-1.5,3-3.7,5.38-6.6,7.12-2.9,1.74-6.45,2.61-10.63,2.61h-15.91v-5.49h15.75c3.08,0,5.65-.62,7.71-1.85,2.06-1.23,3.63-2.95,4.7-5.14,1.07-2.19,1.6-4.7,1.6-7.51s-.53-5.3-1.6-7.47c-1.07-2.16-2.64-3.86-4.72-5.09-2.08-1.23-4.66-1.85-7.73-1.85h-14.05v59.4h-5.67Z"/><path class="aj" d="M868.43,347.41v64.88h-5.43v-64.88h5.43Z"/><path class="aj" d="M893.57,413.29c-2.73,0-5.22-.55-7.47-1.66-2.25-1.1-4.05-2.74-5.38-4.9s-2-4.8-2-7.9c0-2.41.42-4.43,1.28-6.05.85-1.62,2.05-2.95,3.6-3.98,1.55-1.03,3.39-1.85,5.51-2.46,2.12-.61,4.46-1.09,7.03-1.44,2.54-.35,4.67-.65,6.4-.89,1.73-.25,3.04-.65,3.95-1.22.9-.57,1.36-1.44,1.36-2.63v-1.04c0-2.15-.42-3.99-1.26-5.53-.84-1.54-2.04-2.73-3.62-3.57-1.58-.84-3.5-1.26-5.77-1.26s-4.06.37-5.69,1.11-2.98,1.71-4.03,2.92c-1.05,1.2-1.79,2.55-2.23,4.03l-5.3-1.48c.81-2.7,2.08-4.91,3.81-6.64s3.75-3.02,6.07-3.88c2.32-.86,4.75-1.28,7.29-1.28,1.89,0,3.79.28,5.71.83,1.92.55,3.66,1.44,5.22,2.68,1.57,1.23,2.83,2.88,3.79,4.92.96,2.05,1.44,4.57,1.44,7.56v32.79h-5.34v-7.66h-.37c-.62,1.48-1.55,2.88-2.79,4.2-1.24,1.32-2.79,2.4-4.64,3.22s-4.03,1.24-6.54,1.24ZM894.38,408.07c2.78,0,5.18-.64,7.19-1.92s3.56-3,4.64-5.18c1.08-2.18,1.62-4.57,1.62-7.18v-6.84c-.38.38-1.01.73-1.88,1.04-.88.32-1.89.6-3.04.85s-2.31.46-3.5.63c-1.19.17-2.29.33-3.32.48-2.48.32-4.62.83-6.4,1.55-1.78.71-3.14,1.68-4.09,2.9-.95,1.22-1.42,2.79-1.42,4.7s.45,3.5,1.34,4.83c.89,1.34,2.11,2.36,3.64,3.07,1.54.71,3.28,1.07,5.22,1.07Z"/><path class="aj" d="M931.79,382.5v29.79h-5.43v-48.08h5.22l.04,11.24h-.97c1.24-4.18,3.18-7.21,5.83-9.1,2.65-1.89,5.68-2.83,9.11-2.83,3.05,0,5.74.69,8.08,2.07,2.33,1.38,4.16,3.38,5.49,6.01,1.32,2.63,1.98,5.87,1.98,9.73v30.96h-5.42v-30.53c0-4.01-1.04-7.16-3.12-9.45-2.08-2.29-4.86-3.44-8.34-3.44-2.35,0-4.47.54-6.36,1.61-1.89,1.08-3.38,2.63-4.47,4.66-1.09,2.03-1.64,4.49-1.64,7.36Z"/><path class="aj" d="M978.76,412.81c-1.19,0-2.2-.45-3.04-1.35-.84-.9-1.25-1.99-1.25-3.27s.42-2.37,1.25-3.27c.84-.9,1.85-1.35,3.04-1.35s2.2.45,3.04,1.35c.84.9,1.25,1.99,1.25,3.27s-.42,2.37-1.25,3.27c-.84.9-1.85,1.35-3.04,1.35Z"/><path class="aj" d="M1038.2,413.38c-4.16,0-7.77-.76-10.85-2.26s-5.49-3.62-7.23-6.34c-1.74-2.71-2.71-5.87-2.89-9.47h5.79c.19,2.67.95,4.94,2.29,6.79,1.34,1.86,3.12,3.27,5.37,4.25,2.24.97,4.75,1.46,7.53,1.46,3.02,0,5.69-.54,8-1.61,2.31-1.07,4.12-2.58,5.45-4.51s1.98-4.17,1.98-6.73c0-2.12-.5-3.91-1.5-5.38-1-1.47-2.44-2.71-4.31-3.75s-4.12-1.95-6.74-2.77l-7.04-2.18c-5.02-1.54-8.83-3.67-11.42-6.38-2.59-2.71-3.89-6.13-3.89-10.25,0-3.51.86-6.6,2.59-9.28,1.73-2.67,4.08-4.75,7.06-6.25,2.98-1.5,6.36-2.24,10.14-2.24s7.2.75,10.1,2.26c2.9,1.51,5.2,3.59,6.88,6.25,1.69,2.66,2.6,5.7,2.73,9.12h-5.59c-.3-3.72-1.75-6.66-4.35-8.84-2.61-2.18-5.92-3.27-9.94-3.27-2.75,0-5.19.52-7.31,1.55-2.12,1.03-3.77,2.45-4.96,4.25-1.19,1.8-1.78,3.86-1.78,6.18,0,2.15.55,3.96,1.66,5.44,1.11,1.48,2.57,2.71,4.39,3.7s3.8,1.81,5.93,2.48l6.44,1.96c2.13.64,4.18,1.43,6.15,2.37,1.97.94,3.73,2.1,5.28,3.46,1.55,1.37,2.78,2.99,3.68,4.88.9,1.89,1.36,4.12,1.36,6.71,0,3.51-.85,6.66-2.55,9.43-1.7,2.77-4.12,4.96-7.25,6.55-3.13,1.6-6.87,2.4-11.21,2.4Z"/><path class="aj" d="M1086.17,364.21v5.1h-21.54v-5.1h21.54ZM1071.52,352.41h5.43v48.64c0,2.29.48,3.98,1.44,5.05.96,1.07,2.44,1.52,4.43,1.35.43-.03.94-.08,1.52-.15.58-.07,1.11-.15,1.6-.24l.89,5.05c-.59.17-1.25.3-1.98.39-.73.09-1.44.14-2.15.17-3.54.2-6.28-.7-8.24-2.7-1.96-2-2.94-4.83-2.94-8.49v-49.08Z"/><path class="aj" d="M1107.71,413.29c-2.73,0-5.22-.55-7.47-1.66-2.25-1.1-4.05-2.74-5.39-4.9-1.34-2.16-2-4.8-2-7.9,0-2.41.42-4.43,1.28-6.05.85-1.62,2.05-2.95,3.6-3.98,1.55-1.03,3.39-1.85,5.51-2.46,2.12-.61,4.46-1.09,7.02-1.44,2.54-.35,4.67-.65,6.4-.89,1.73-.25,3.04-.65,3.95-1.22.9-.57,1.36-1.44,1.36-2.63v-1.04c0-2.15-.42-3.99-1.25-5.53-.84-1.54-2.04-2.73-3.62-3.57-1.58-.84-3.5-1.26-5.77-1.26s-4.06.37-5.69,1.11c-1.63.74-2.98,1.71-4.03,2.92-1.05,1.2-1.8,2.55-2.23,4.03l-5.3-1.48c.81-2.7,2.08-4.91,3.81-6.64,1.73-1.73,3.75-3.02,6.07-3.88,2.32-.86,4.75-1.28,7.29-1.28,1.89,0,3.79.28,5.71.83,1.92.55,3.66,1.44,5.22,2.68,1.56,1.23,2.83,2.88,3.79,4.92.96,2.05,1.44,4.57,1.44,7.56v32.79h-5.34v-7.66h-.36c-.62,1.48-1.55,2.88-2.79,4.2-1.24,1.32-2.79,2.4-4.64,3.22-1.85.83-4.03,1.24-6.54,1.24ZM1108.52,408.07c2.78,0,5.18-.64,7.19-1.92,2.01-1.28,3.56-3,4.64-5.18,1.08-2.18,1.62-4.57,1.62-7.18v-6.84c-.38.38-1.01.73-1.88,1.04-.88.32-1.89.6-3.04.85-1.15.25-2.32.46-3.5.63-1.19.17-2.29.33-3.32.48-2.48.32-4.62.83-6.4,1.55-1.78.71-3.14,1.68-4.09,2.9-.94,1.22-1.42,2.79-1.42,4.7s.45,3.5,1.34,4.83c.89,1.34,2.11,2.36,3.64,3.07,1.54.71,3.28,1.07,5.22,1.07Z"/><path class="aj" d="M1138,429.97l1.13-5.09,1.42.17c1.48.41,2.82.48,4.01.22,1.19-.26,2.25-.96,3.2-2.09.94-1.13,1.78-2.77,2.51-4.92l1.98-5.7-17.29-48.34h5.91l10.36,30.05c.95,2.64,1.78,5.28,2.51,7.9.73,2.63,1.47,5.22,2.23,7.77h-1.82c.75-2.55,1.5-5.15,2.25-7.77.74-2.63,1.57-5.26,2.49-7.9l10.41-30.05h5.87l-20.12,56.17c-.84,2.35-1.84,4.3-3,5.83-1.16,1.54-2.5,2.68-4.01,3.42s-3.21,1.11-5.1,1.11c-1.03,0-1.96-.08-2.81-.24-.85-.16-1.56-.34-2.13-.54Z"/><path class="aj" d="M1218.78,413.29c-2.73,0-5.22-.55-7.47-1.66-2.25-1.1-4.05-2.74-5.38-4.9s-2-4.8-2-7.9c0-2.41.42-4.43,1.28-6.05.85-1.62,2.05-2.95,3.6-3.98,1.55-1.03,3.39-1.85,5.51-2.46,2.12-.61,4.46-1.09,7.03-1.44,2.54-.35,4.67-.65,6.4-.89,1.73-.25,3.04-.65,3.95-1.22.9-.57,1.36-1.44,1.36-2.63v-1.04c0-2.15-.42-3.99-1.26-5.53-.84-1.54-2.04-2.73-3.62-3.57-1.58-.84-3.5-1.26-5.77-1.26s-4.06.37-5.69,1.11-2.98,1.71-4.03,2.92c-1.05,1.2-1.79,2.55-2.23,4.03l-5.3-1.48c.81-2.7,2.08-4.91,3.81-6.64s3.75-3.02,6.07-3.88c2.32-.86,4.75-1.28,7.29-1.28,1.89,0,3.79.28,5.71.83,1.92.55,3.66,1.44,5.22,2.68,1.57,1.23,2.83,2.88,3.79,4.92.96,2.05,1.44,4.57,1.44,7.56v32.79h-5.34v-7.66h-.37c-.62,1.48-1.55,2.88-2.79,4.2-1.24,1.32-2.79,2.4-4.64,3.22s-4.03,1.24-6.54,1.24ZM1219.58,408.07c2.78,0,5.18-.64,7.19-1.92s3.56-3,4.64-5.18c1.08-2.18,1.62-4.57,1.62-7.18v-6.84c-.38.38-1.01.73-1.88,1.04-.88.32-1.89.6-3.04.85s-2.31.46-3.5.63c-1.19.17-2.29.33-3.32.48-2.48.32-4.62.83-6.4,1.55-1.78.71-3.14,1.68-4.09,2.9-.95,1.22-1.42,2.79-1.42,4.7s.45,3.5,1.34,4.83c.89,1.34,2.11,2.36,3.64,3.07,1.54.71,3.28,1.07,5.22,1.07Z"/><path class="aj" d="M1257,382.5v29.79h-5.43v-64.88h5.43v28.04h-1.13c1.24-4.18,3.18-7.21,5.83-9.1,2.65-1.89,5.68-2.83,9.11-2.83,3.05,0,5.74.69,8.08,2.07s4.16,3.38,5.49,6.01c1.32,2.63,1.98,5.87,1.98,9.73v30.96h-5.43v-30.53c0-4.01-1.04-7.16-3.12-9.45-2.08-2.29-4.86-3.44-8.34-3.44-2.35,0-4.47.54-6.36,1.61-1.89,1.08-3.38,2.63-4.47,4.66-1.09,2.03-1.64,4.49-1.64,7.36Z"/><path class="aj" d="M1317.53,413.29c-4.18,0-7.81-1.05-10.87-3.16-3.06-2.1-5.43-5.02-7.09-8.75s-2.49-8.02-2.49-12.87.83-9.19,2.49-12.96c1.66-3.76,3.97-6.71,6.94-8.84,2.97-2.13,6.38-3.2,10.24-3.2,2.59,0,5.04.5,7.35,1.5,2.31,1,4.36,2.51,6.15,4.53s3.21,4.53,4.23,7.53c1.03,3,1.54,6.51,1.54,10.52v2.35h-35.51v-5.05h32.55l-2.47,1.87c0-3.48-.56-6.58-1.68-9.3-1.12-2.71-2.71-4.85-4.78-6.4-2.07-1.55-4.53-2.33-7.39-2.33s-5.32.8-7.45,2.39c-2.13,1.6-3.79,3.72-4.98,6.38-1.19,2.66-1.78,5.61-1.78,8.86v2.83c0,3.77.61,7.07,1.82,9.88,1.21,2.82,2.95,5.01,5.2,6.58,2.25,1.57,4.91,2.35,7.96,2.35,2.13,0,4.01-.36,5.65-1.09,1.63-.72,3.01-1.72,4.13-2.98s1.95-2.66,2.49-4.2l5.22,1.39c-.68,2.21-1.81,4.24-3.4,6.1-1.59,1.86-3.58,3.33-5.97,4.42-2.39,1.09-5.1,1.63-8.12,1.63Z"/><path class="aj" d="M1359.35,413.29c-2.73,0-5.22-.55-7.47-1.66-2.25-1.1-4.05-2.74-5.38-4.9s-2-4.8-2-7.9c0-2.41.42-4.43,1.28-6.05.85-1.62,2.05-2.95,3.6-3.98,1.55-1.03,3.39-1.85,5.51-2.46,2.12-.61,4.46-1.09,7.03-1.44,2.54-.35,4.67-.65,6.4-.89,1.73-.25,3.04-.65,3.95-1.22.9-.57,1.36-1.44,1.36-2.63v-1.04c0-2.15-.42-3.99-1.26-5.53-.84-1.54-2.04-2.73-3.62-3.57-1.58-.84-3.5-1.26-5.77-1.26s-4.06.37-5.69,1.11-2.98,1.71-4.03,2.92c-1.05,1.2-1.79,2.55-2.23,4.03l-5.3-1.48c.81-2.7,2.08-4.91,3.81-6.64s3.75-3.02,6.07-3.88c2.32-.86,4.75-1.28,7.29-1.28,1.89,0,3.79.28,5.71.83,1.92.55,3.66,1.44,5.22,2.68,1.57,1.23,2.83,2.88,3.79,4.92.96,2.05,1.44,4.57,1.44,7.56v32.79h-5.34v-7.66h-.37c-.62,1.48-1.55,2.88-2.79,4.2-1.24,1.32-2.79,2.4-4.64,3.22s-4.03,1.24-6.54,1.24ZM1360.16,408.07c2.78,0,5.18-.64,7.19-1.92s3.56-3,4.64-5.18c1.08-2.18,1.62-4.57,1.62-7.18v-6.84c-.38.38-1.01.73-1.88,1.04-.88.32-1.89.6-3.04.85s-2.31.46-3.5.63c-1.19.17-2.29.33-3.32.48-2.48.32-4.62.83-6.4,1.55-1.78.71-3.14,1.68-4.09,2.9-.95,1.22-1.42,2.79-1.42,4.7s.45,3.5,1.34,4.83c.89,1.34,2.11,2.36,3.64,3.07,1.54.71,3.28,1.07,5.22,1.07Z"/><path class="aj" d="M1408.34,413.29c-3.67,0-6.9-1.05-9.7-3.14s-4.97-5-6.54-8.73-2.35-8.09-2.35-13.09.78-9.27,2.35-13c1.57-3.73,3.75-6.63,6.56-8.71,2.81-2.08,6.05-3.11,9.72-3.11,2.62,0,4.85.49,6.7,1.48,1.85.99,3.37,2.24,4.55,3.75,1.19,1.51,2.09,3.06,2.71,4.66h.36v-26h5.43v64.88h-5.26v-9.01h-.49c-.65,1.63-1.58,3.2-2.79,4.72-1.21,1.52-2.74,2.79-4.58,3.79-1.84,1-4.06,1.5-6.68,1.5ZM1409.07,407.98c2.89,0,5.36-.83,7.43-2.5,2.06-1.67,3.64-3.98,4.74-6.95,1.09-2.96,1.64-6.37,1.64-10.23s-.55-7.21-1.64-10.15c-1.09-2.93-2.67-5.22-4.72-6.86-2.05-1.64-4.54-2.46-7.45-2.46s-5.4.83-7.45,2.5c-2.05,1.67-3.62,3.97-4.72,6.9s-1.64,6.29-1.64,10.06.55,7.15,1.64,10.12,2.67,5.31,4.74,7.01c2.06,1.7,4.54,2.55,7.43,2.55Z"/><path class="aj" d="M1445.75,412.81c-1.19,0-2.2-.45-3.04-1.35-.84-.9-1.25-1.99-1.25-3.27s.42-2.37,1.25-3.27c.84-.9,1.85-1.35,3.04-1.35s2.2.45,3.04,1.35c.84.9,1.25,1.99,1.25,3.27s-.42,2.37-1.25,3.27c-.84.9-1.85,1.35-3.04,1.35Z"/></svg>