<?xml version="1.0" encoding="UTF-8"?><svg id="s" xmlns="http://www.w3.org/2000/svg" xmlns:xlink="http://www.w3.org/1999/xlink" viewBox="0 0 928.28 1008.52"><defs><style>.ab{fill:url(#w);}.ac{fill:url(#t);}.ad{fill:#153f3b;}.ae{fill:url(#z);}.af{fill:url(#aa);}.ag{fill:url(#v);}.ah{fill:url(#x);}.ai{fill:url(#y);}.aj{fill:url(#u);}</style><linearGradient id="t" x1="-614.38" y1="-35.07" x2="165.05" y2="744.36" gradientTransform="translate(564 730.26) scale(1 -1)" gradientUnits="userSpaceOnUse"><stop offset=".1" stop-color="#00a594"/><stop offset=".45" stop-color="#2f7d73"/><stop offset=".93" stop-color="#8fbdb1"/></linearGradient><linearGradient id="u" x1="-176.9" y1="634.81" x2="389.27" y2="68.65" gradientTransform="translate(564 730.26) scale(1 -1)" gradientUnits="userSpaceOnUse"><stop offset=".15" stop-color="#e8c58f"/><stop offset=".55" stop-color="#d7af72"/><stop offset=".95" stop-color="#b88d55"/></linearGradient><linearGradient id="v" x1="-347.84" y1="620.57" x2="308.33" y2="-35.59" gradientTransform="translate(564 730.26) scale(1 -1)" gradientUnits="userSpaceOnUse"><stop offset=".02" stop-color="#f4dfc0" stop-opacity="0"/><stop offset=".43" stop-color="#f1d3a0" stop-opacity=".85"/><stop offset=".9" stop-color="#c59a61" stop-opacity="0"/></linearGradient><linearGradient id="w" x1="-419.59" y1="595.31" x2="-25.35" y2="199.3" gradientTransform="translate(564 730.26) scale(1 -1)" gradientUnits="userSpaceOnUse"><stop offset=".03" stop-color="#0e6f66"/><stop offset=".45" stop-color="#167f75" stop-opacity=".65"/><stop offset=".93" stop-color="#5fa99a" stop-opacity="0"/></linearGradient><linearGradient id="x" x1="-307.25" y1="-310.4" x2="250.68" y2="247.54" gradientTransform="translate(564 730.26) scale(1 -1)" gradientUnits="userSpaceOnUse"><stop offset=".11" stop-color="#8fbdb1"/><stop offset=".55" stop-color="#bfd5cb"/><stop offset="1" stop-color="#c7d3ce"/></linearGradient><linearGradient id="y" x1="-3.15" y1="197.96" x2="-410.3" y2="-209.19" gradientTransform="translate(564 730.26) scale(1 -1)" gradientUnits="userSpaceOnUse"><stop offset=".28" stop-color="#00a594"/><stop offset=".52" stop-color="#2f7d73" stop-opacity=".55"/><stop offset=".83" stop-color="#8fbdb1" stop-opacity="0"/></linearGradient><linearGradient id="z" x1="-20.26" y1="263.83" x2="292.93" y2="-49.38" gradientTransform="translate(564 730.26) scale(1 -1)" gradientUnits="userSpaceOnUse"><stop offset=".04" stop-color="#4f8f84"/><stop offset=".55" stop-color="#7fafa4" stop-opacity=".42"/><stop offset="1" stop-color="#bfd5cb" stop-opacity="0"/></linearGradient><linearGradient id="aa" x1="-334.01" y1="-154.46" x2="57.22" y2="236.78" gradientTransform="translate(564 730.26) scale(1 -1)" gradientUnits="userSpaceOnUse"><stop offset=".05" stop-color="#bfd8d0" stop-opacity="0"/><stop offset=".3" stop-color="#a9cdc3"/><stop offset=".65" stop-color="#ddebe6"/><stop offset="1" stop-color="#ddebe6" stop-opacity="0"/></linearGradient></defs><path class="ad" d="M826.31,177.45L566.28,27.31c-63.25-36.42-140.87-36.42-204.13,0L102.12,177.45C39.03,213.87.2,281.27.2,354.11v300.29c0,72.84,38.81,140.24,101.9,176.66l260.03,150.14c63.25,36.42,140.87,36.42,204.13,0l260.03-150.14c2.08-1.29,4.16-2.55,6.06-3.84,59.58-37.05,95.84-102.39,95.84-172.83v-300.29c0-72.84-38.81-140.24-101.9-176.66h.02ZM596.95,445.3c32.59,32.59,32.59,85.29,0,117.88l-73.8,73.8c-32.59,32.59-85.29,32.59-117.88,0l-73.8-73.8c-32.59-32.59-32.59-85.29,0-117.88l73.8-73.8c32.59-32.59,85.29-32.59,117.88,0l73.8,73.8h0Z"/><path class="ac" d="M363.42,211.79l159.73,159.73c-32.59-32.59-85.29-32.59-117.88,0l-73.8,73.8c-32.59,32.59-32.59,85.29,0,117.88l73.8,73.8c32.59,32.59,85.29,32.59,117.88,0l-159.73,159.73c-69.17,69.31-176.34,83.37-261.32,34.34C39.03,794.62.2,727.23.2,654.38v-300.29c0-72.82,38.83-140.22,101.92-176.64,84.96-49.03,192.15-34.97,261.32,34.34h-.02Z"/><path class="aj" d="M928.21,354.11v300.29c0,70.44-36.26,135.77-95.84,172.83,44.73-30.83,51.44-95.68,12.14-134.81l-321.37-320.88-159.73-159.73c-69.17-69.31-176.34-83.37-261.32-34.34L362.16,27.31c63.25-36.42,140.87-36.42,204.13,0l260.03,150.14c63.09,36.42,101.9,103.82,101.9,176.66Z"/><path class="ag" d="M881.33,763.57c2.65-29.48-7.84-58.38-28.77-79.21l-321.37-320.88-159.71-159.73c-42.93-43.03-100.12-66.74-161.03-66.74-5.55,0-11.1.2-16.61.61v11.47c5.53-.43,11.08-.71,16.61-.71,56.01,0,111.37,21.71,152.97,63.4l159.73,159.73,321.37,320.88c20.61,20.53,28.44,48.09,24.89,74.15h11.59c.12-1,.22-1.98.31-2.98l.02.02Z"/><path class="ab" d="M523.15,371.52l-159.73-159.73c-60.23-60.36-149.28-78.8-227.39-50.17-.78.31-1.59.61-2.37.92h-.04c-10.75,4.08-21.3,9.04-31.52,14.94-9.77,5.65-18.89,12.12-27.44,19.14-2.22,1.82-4.43,3.63-6.57,5.55,83.01-36.38,180.84-19.02,245.91,46.2l109.45,109.45c31.75-17.85,72.64-13.32,99.68,13.71h.02Z"/><path class="ah" d="M844.52,692.4c39.3,39.14,32.59,103.98-12.14,134.81-1.92,1.29-4,2.55-6.06,3.84l-260.03,150.14c-63.25,36.42-140.87,36.42-204.13,0l-260.03-150.14c84.96,49.03,192.15,34.97,261.32-34.34l159.73-159.73,73.8-73.8c32.59-32.59,32.59-85.29,0-117.88l247.57,247.1h-.02Z"/><path class="ai" d="M523.15,636.98c-26,26-64.64,30.89-95.82,15.41l-144.32,144.32c-31.65,31.71-71.27,51.73-113.08,59.54,68.97,13.14,141.83-7.77,193.47-59.54l159.73-159.73h.02Z"/><path class="ae" d="M596.95,445.3c26.97,26.97,31.26,67.62,13.57,99.35l196.86,196.58c24.06,23.98,31.18,57.3,23.34,87.02.55-.35,1.14-.69,1.65-1.04,44.73-30.83,51.44-95.68,12.14-134.81l-247.57-247.1h0Z"/><path class="af" d="M632.39,496.76h-11.37c2.12,23.75-5.88,48.22-24.08,66.42l-73.8,73.8-159.73,159.73c-41.6,41.71-96.96,63.4-152.97,63.4-5.53,0-11.08-.29-16.61-.71v11.47c5.53.41,11.06.61,16.61.61,60.91,0,118.08-23.71,161.01-66.74l159.73-159.73,73.8-73.8c20.36-20.36,29.5-47.79,27.4-74.48v.04Z"/></svg>