<?xml version="1.0" encoding="UTF-8"?><svg id="q" xmlns="http://www.w3.org/2000/svg" xmlns:xlink="http://www.w3.org/1999/xlink" viewBox="0 0 454.93 494.26"><defs><style>.ab{fill:url(#w);}.ac{fill:url(#t);}.ad{fill:#153f3b;}.ae{fill:url(#v);}.af{fill:url(#x);}.ag{fill:url(#y);}.ah{fill:#f4efe7;}.ai{fill:url(#r);}.aj{fill:url(#u);}.ak{fill:url(#s);}</style><linearGradient id="r" x1="-536.27" y1="433.27" x2="-233.76" y2="735.77" gradientTransform="translate(564 730.26) scale(1 -1)" gradientUnits="userSpaceOnUse"><stop offset=".1" stop-color="#00a594"/><stop offset=".45" stop-color="#2f7d73"/><stop offset=".93" stop-color="#8fbdb1"/></linearGradient><linearGradient id="s" x1="-366.48" y1="693.25" x2="-146.73" y2="473.5" gradientTransform="translate(564 730.26) scale(1 -1)" gradientUnits="userSpaceOnUse"><stop offset=".15" stop-color="#e8c58f"/><stop offset=".55" stop-color="#d7af72"/><stop offset=".95" stop-color="#b88d55"/></linearGradient><linearGradient id="t" x1="-432.81" y1="687.73" x2="-178.13" y2="433.05" gradientTransform="translate(564 730.26) scale(1 -1)" gradientUnits="userSpaceOnUse"><stop offset=".02" stop-color="#f4dfc0" stop-opacity="0"/><stop offset=".43" stop-color="#f1d3a0" stop-opacity=".85"/><stop offset=".9" stop-color="#c59a61" stop-opacity="0"/></linearGradient><linearGradient id="u" x1="-460.68" y1="677.91" x2="-307.65" y2="524.2" gradientTransform="translate(564 730.26) scale(1 -1)" gradientUnits="userSpaceOnUse"><stop offset=".03" stop-color="#0e6f66"/><stop offset=".45" stop-color="#167f75" stop-opacity=".65"/><stop offset=".93" stop-color="#5fa99a" stop-opacity="0"/></linearGradient><linearGradient id="v" x1="-417.08" y1="326.42" x2="-200.49" y2="543" gradientTransform="translate(564 730.26) scale(1 -1)" gradientUnits="userSpaceOnUse"><stop offset=".11" stop-color="#8fbdb1"/><stop offset=".55" stop-color="#bfd5cb"/><stop offset="1" stop-color="#c7d3ce"/></linearGradient><linearGradient id="w" x1="-299.04" y1="523.74" x2="-457.07" y2="365.71" gradientTransform="translate(564 730.26) scale(1 -1)" gradientUnits="userSpaceOnUse"><stop offset=".28" stop-color="#00a594"/><stop offset=".52" stop-color="#2f7d73" stop-opacity=".55"/><stop offset=".83" stop-color="#8fbdb1" stop-opacity="0"/></linearGradient><linearGradient id="x" x1="-305.63" y1="549.3" x2="-184.08" y2="427.74" gradientTransform="translate(564 730.26) scale(1 -1)" gradientUnits="userSpaceOnUse"><stop offset=".04" stop-color="#4f8f84"/><stop offset=".55" stop-color="#7fafa4" stop-opacity=".42"/><stop offset="1" stop-color="#bfd5cb" stop-opacity="0"/></linearGradient><linearGradient id="y" x1="-427.45" y1="386.95" x2="-275.6" y2="538.8" gradientTransform="translate(564 730.26) scale(1 -1)" gradientUnits="userSpaceOnUse"><stop offset=".05" stop-color="#bfd8d0" stop-opacity="0"/><stop offset=".3" stop-color="#a9cdc3"/><stop offset=".65" stop-color="#ddebe6"/><stop offset="1" stop-color="#ddebe6" stop-opacity="0"/></linearGradient></defs><path class="ad" d="M368.04,68.86l-100.95-58.26c-24.56-14.13-54.69-14.13-79.25,0l-100.95,58.26c-24.49,14.13-39.57,40.28-39.57,68.55v116.52c0,28.27,15.07,54.42,39.56,68.55l100.95,58.26c24.56,14.13,54.69,14.13,79.25,0l100.95-58.26c.81-.5,1.62-.99,2.35-1.49,23.13-14.38,37.21-39.73,37.21-67.06v-116.52c0-28.27-15.07-54.42-39.56-68.55h0ZM278.99,172.79c12.65,12.64,12.65,33.09,0,45.74l-28.65,28.64c-12.65,12.64-33.11,12.64-45.76,0l-28.65-28.64c-12.65-12.64-12.65-33.09,0-45.74l28.65-28.64c12.65-12.64,33.11-12.64,45.76,0l28.65,28.64h0Z"/><path class="ai" d="M188.33,82.18l62.01,61.98c-12.65-12.64-33.11-12.64-45.76,0l-28.65,28.64c-12.65,12.64-12.65,33.09,0,45.74l28.65,28.64c12.65,12.64,33.11,12.64,45.76,0l-62.01,61.98c-26.85,26.9-68.46,32.35-101.45,13.33-24.48-14.14-39.56-40.29-39.56-68.56v-116.52c0-28.26,15.07-54.41,39.57-68.54,32.98-19.03,74.6-13.57,101.45,13.33h0Z"/><path class="ak" d="M407.6,137.4v116.52c0,27.33-14.08,52.68-37.21,67.06,17.36-11.96,19.97-37.12,4.71-52.31l-124.76-124.51-62.01-61.98c-26.85-26.9-68.46-32.35-101.45-13.33L187.84,10.6c24.56-14.13,54.69-14.13,79.25,0l100.95,58.26c24.49,14.13,39.56,40.28,39.56,68.55Z"/><path class="ac" d="M389.39,296.28c1.03-11.44-3.04-22.65-11.17-30.74l-124.76-124.51-62-61.98c-16.67-16.7-38.87-25.9-62.52-25.9-2.15,0-4.31.08-6.45.24v4.45c2.15-.17,4.3-.28,6.45-.28,21.74,0,43.23,8.42,59.39,24.6l62.01,61.98,124.76,124.51c8,7.96,11.04,18.66,9.66,28.77h4.5c.05-.39.09-.77.12-1.16h0Z"/><path class="aj" d="M250.34,144.16l-62.01-61.98c-23.38-23.42-57.95-30.58-88.28-19.47-.3.12-.62.24-.92.36h-.02c-4.17,1.58-8.27,3.51-12.24,5.8-3.79,2.19-7.34,4.7-10.65,7.43-.86.7-1.72,1.41-2.55,2.15,32.22-14.12,70.21-7.38,95.47,17.93l42.49,42.47c12.33-6.93,28.2-5.17,38.7,5.32h0Z"/><path class="ae" d="M375.1,268.67c15.26,15.19,12.65,40.35-4.71,52.31-.74.5-1.55.99-2.35,1.49l-100.95,58.26c-24.56,14.13-54.69,14.13-79.25,0l-100.95-58.26c32.98,19.03,74.6,13.57,101.45-13.33l62.01-61.98,28.65-28.64c12.65-12.64,12.65-33.09,0-45.74l96.11,95.88h0Z"/><path class="ab" d="M250.34,247.16c-10.09,10.09-25.09,11.99-37.2,5.98l-56.03,56c-12.29,12.3-27.67,20.07-43.9,23.1,26.77,5.1,55.06-3.02,75.11-23.1l62.01-61.98h0Z"/><path class="af" d="M278.99,172.79c10.47,10.47,12.14,26.24,5.27,38.55l76.43,76.28c9.34,9.3,12.1,22.23,9.06,33.77.21-.13.44-.27.64-.4,17.36-11.96,19.97-37.12,4.71-52.31l-96.11-95.88h0Z"/><path class="ag" d="M292.75,192.76h-4.41c.82,9.22-2.28,18.71-9.35,25.77l-28.65,28.64-62.01,61.98c-16.15,16.18-37.64,24.6-59.39,24.6-2.15,0-4.3-.11-6.45-.28v4.45c2.15.16,4.29.24,6.45.24,23.65,0,45.84-9.2,62.51-25.9l62.01-61.98,28.65-28.64c7.91-7.9,11.45-18.54,10.64-28.9v.02Z"/><path class="ah" d="M74.61,447.43c1.27,1.96,2.86,3.67,4.75,5.11,1.89,1.45,4.46,3.17,7.69,5.16,3.51,2.2,6.28,4.1,8.31,5.68,2.03,1.58,3.75,3.53,5.16,5.83,1.41,2.31,2.12,5.01,2.12,8.11,0,3.51-.91,6.64-2.74,9.4-1.82,2.75-4.41,4.9-7.74,6.45-3.34,1.55-7.14,2.32-11.41,2.32-2.89,0-5.87-.38-8.93-1.14-3.06-.76-5.39-1.69-6.97-2.79-.62-.41-.96-1.07-1.03-1.96l-.62-15.69v-.1c0-.27.17-.43.52-.46.34-.03.55.09.62.36,2.27,5.71,4.87,10.39,7.8,14.04,2.92,3.65,6.66,5.47,11.2,5.47,2.96,0,5.44-.81,7.43-2.43,2-1.62,2.99-4.32,2.99-8.1,0-3.03-.67-5.68-2.01-7.95s-2.99-4.16-4.96-5.68c-1.96-1.51-4.63-3.37-8-5.58-3.3-2.13-5.88-3.94-7.74-5.42-1.86-1.48-3.44-3.3-4.75-5.47-1.31-2.17-1.96-4.7-1.96-7.59,0-3.58,1-6.61,2.99-9.09,2-2.48,4.59-4.32,7.8-5.52,3.2-1.2,6.56-1.81,10.07-1.81,2.34,0,4.68.22,7.02.67,2.34.45,4.3,1.02,5.88,1.7,1.03.41,1.55,1.07,1.55,1.96l.31,14.04c0,.21-.19.34-.57.41-.38.07-.6,0-.67-.21-1.38-4.2-3.22-8-5.52-11.41-2.31-3.41-5.77-5.11-10.38-5.11-3.1,0-5.56.9-7.38,2.68-1.82,1.79-2.74,4.23-2.74,7.33,0,2.55.64,4.8,1.91,6.76Z"/><path class="ah" d="M159.23,487.75c.21,0,.38.17.52.52.14.34.1.58-.1.72l-13.53,6.5-.41.1c-.69,0-1.31-.77-1.86-2.32-.55-1.55-.86-3.63-.93-6.25-4.82,5.58-9.91,8.36-15.28,8.36-3.72,0-6.61-1.15-8.67-3.46-2.06-2.31-3.1-5.45-3.1-9.45v-15.38c0-4.68-1.07-7.02-3.2-7.02-.69,0-1.65.28-2.89.83h-.1c-.28,0-.48-.17-.62-.52-.14-.34-.1-.58.1-.72l13.11-6.09.41-.1c.27,0,.58.14.93.41.34.28.52.52.52.72v23.44c0,3.86.71,6.73,2.12,8.62,1.41,1.89,3.56,2.84,6.45,2.84,1.72,0,3.49-.41,5.32-1.24,1.82-.83,3.46-1.96,4.9-3.41v-17.76c0-2.41-.26-4.18-.77-5.32-.52-1.14-1.33-1.7-2.43-1.7-.62,0-1.58.28-2.89.83h-.1c-.28,0-.48-.19-.62-.57-.14-.38-.07-.6.21-.67l13.01-6.09c.14-.07.31-.1.52-.1.27,0,.58.14.93.41.34.28.52.52.52.72v27.98c0,2.41.24,4.1.72,5.06.48.96,1.27,1.45,2.38,1.45.83,0,2.38-.41,4.65-1.24l.21-.1Z"/><path class="ah" d="M200.89,455.23c2.58,1.45,4.65,3.61,6.19,6.5s2.32,6.4,2.32,10.53c0,4.96-1.05,9.19-3.15,12.7-2.1,3.51-4.87,6.16-8.31,7.95-3.44,1.79-7.09,2.68-10.94,2.68-5.37,0-10.19-1.58-14.46-4.75l-8.78,4.03h-.21c-.28,0-.45-.12-.52-.36-.07-.24,0-.43.21-.57,1.86-1.17,3.22-2.53,4.08-4.08.86-1.55,1.29-3.63,1.29-6.25v-50.49c0-2.41-.24-4.15-.72-5.21-.48-1.07-1.31-1.6-2.48-1.6-.83,0-2.17.41-4.03,1.24h-.1c-.28,0-.48-.17-.62-.52-.14-.34-.14-.58,0-.72l14.35-6.81.52-.1c.27,0,.58.14.93.41.34.28.52.52.52.72v40.16c2.27-2.34,4.65-4.2,7.12-5.58,2.48-1.38,5.27-2.06,8.36-2.06s5.83.72,8.42,2.17ZM197.43,488.99c1.79-3.03,2.68-7.33,2.68-12.91,0-6.06-1.08-10.62-3.25-13.68-2.17-3.06-5.08-4.59-8.72-4.59s-7.23,1.58-11.15,4.75v15.8c0,3.58.67,6.5,2.01,8.78,1.34,2.27,3,3.91,4.96,4.9,1.96,1,3.87,1.5,5.73,1.5,3.37,0,5.95-1.51,7.74-4.54Z"/><path class="ah" d="M254.73,420.9c2.13,1.07,3.2,2.5,3.2,4.28,0,1.38-.46,2.46-1.39,3.25-.93.79-2.01,1.19-3.25,1.19-1.38,0-2.43-.31-3.15-.93-.72-.62-1.39-1.58-2.01-2.89-.83-1.45-1.67-2.53-2.53-3.25-.86-.72-2.08-1.08-3.67-1.08-3.44,0-6.16,2.24-8.16,6.71-2,4.47-2.99,11.39-2.99,20.75v6.4c3.58-.07,7.57-.38,11.98-.93.21,0,.38.24.52.72.14.48.21,1.07.21,1.76,0,.62-.1,1.24-.31,1.86-.21.62-.45.9-.72.83-4.2-.96-8.09-1.48-11.67-1.55v27.88c0,2.13.22,3.68.67,4.65.45.96,1.32,1.62,2.63,1.96,1.31.34,3.37.52,6.2.52.27,0,.41.21.41.62s-.14.62-.41.62l-6.92-.1c-1.51-.07-3.82-.1-6.92-.1l-6.09.1c-1.03.07-2.51.1-4.44.1-.28,0-.41-.21-.41-.62s.14-.62.41-.62c1.86,0,3.23-.19,4.13-.57.89-.38,1.51-1.05,1.86-2.01.34-.96.52-2.48.52-4.54v-23.23c0-2.27-.45-3.72-1.34-4.34s-2.75-.93-5.58-.93c-.21,0-.31-.31-.31-.93,0-.55.1-.83.31-.83,2.55,0,4.29-.33,5.21-.98.93-.65,1.43-1.84,1.5-3.56.34-11.22,2.44-19.32,6.3-24.32,3.85-4.99,9.64-7.49,17.35-7.49,3.79,0,6.75.53,8.88,1.6Z"/><path class="ah" d="M257.72,492.66c-3.17-1.96-5.61-4.61-7.33-7.95-1.72-3.34-2.58-6.97-2.58-10.89,0-4.47,1.12-8.28,3.36-11.41,2.24-3.13,5.09-5.47,8.57-7.02,3.47-1.55,7.04-2.32,10.69-2.32,4.2,0,7.86,1,11,2.99,3.13,2,5.52,4.63,7.18,7.9,1.65,3.27,2.48,6.76,2.48,10.48,0,4.13-1.02,7.81-3.05,11.05-2.03,3.24-4.77,5.73-8.21,7.49-3.44,1.76-7.16,2.63-11.15,2.63s-7.78-.98-10.94-2.94ZM278.74,489.51c1.62-2.68,2.43-6.61,2.43-11.77,0-4.61-.64-8.64-1.91-12.08-1.27-3.44-2.99-6.06-5.16-7.85-2.17-1.79-4.53-2.68-7.07-2.68-3.1,0-5.44,1.27-7.02,3.82-1.58,2.55-2.38,6.3-2.38,11.25,0,4.47.6,8.48,1.81,12.03,1.2,3.55,2.89,6.32,5.06,8.31,2.17,2,4.59,2.99,7.28,2.99,3.03,0,5.35-1.34,6.97-4.03Z"/><path class="ah" d="M298.09,493.64c0-.41.1-.62.31-.62,2.27,0,3.82-.5,4.65-1.5.83-1,1.24-2.87,1.24-5.63v-52.76c0-2.41-.22-4.15-.67-5.21-.45-1.07-1.26-1.6-2.43-1.6-1.03,0-2.41.41-4.13,1.24h-.1c-.28,0-.48-.17-.62-.52-.14-.34-.14-.58,0-.72l14.56-6.81.41-.1c.27,0,.6.14.98.41.38.28.57.52.57.72v65.36c0,2.82.38,4.72,1.14,5.68.76.96,2.3,1.45,4.65,1.45.21,0,.31.21.31.62s-.1.62-.31.62c-1.65,0-2.99-.03-4.03-.1l-6.09-.1-5.99.1c-1.03.07-2.41.1-4.13.1-.21,0-.31-.21-.31-.62Z"/><path class="ah" d="M326.18,493.64c0-.41.1-.62.31-.62,2.34,0,3.89-.48,4.65-1.45.76-.96,1.14-2.86,1.14-5.68v-18.79c0-2.34-.24-4.04-.72-5.11-.48-1.07-1.31-1.6-2.48-1.6-1.03,0-2.38.41-4.03,1.24h-.1c-.28,0-.48-.17-.62-.52-.14-.34-.1-.58.1-.72l14.87-6.92.31-.1c.27,0,.57.16.88.46s.46.57.46.77v2.17c-.14,2.89-.21,6.3-.21,10.22v18.89c0,2.82.4,4.72,1.19,5.68.79.96,2.36,1.45,4.7,1.45.21,0,.31.21.31.62s-.1.62-.31.62c-1.72,0-3.1-.03-4.13-.1l-5.99-.1-5.99.1c-.96.07-2.31.1-4.03.1-.21,0-.31-.21-.31-.62ZM331.81,441.08c-1-.96-1.5-2.34-1.5-4.13s.5-3.05,1.5-3.97c1-.93,2.39-1.39,4.18-1.39s3.06.46,4.03,1.39c.96.93,1.45,2.25,1.45,3.97s-.46,3.17-1.39,4.13c-.93.96-2.29,1.45-4.08,1.45s-3.18-.48-4.18-1.45Z"/><path class="ah" d="M362.73,492.66c-3.17-1.96-5.61-4.61-7.33-7.95-1.72-3.34-2.58-6.97-2.58-10.89,0-4.47,1.12-8.28,3.36-11.41,2.24-3.13,5.09-5.47,8.57-7.02,3.47-1.55,7.04-2.32,10.69-2.32,4.2,0,7.86,1,11,2.99,3.13,2,5.52,4.63,7.18,7.9,1.65,3.27,2.48,6.76,2.48,10.48,0,4.13-1.02,7.81-3.05,11.05-2.03,3.24-4.77,5.73-8.21,7.49-3.44,1.76-7.16,2.63-11.15,2.63s-7.78-.98-10.94-2.94ZM383.74,489.51c1.62-2.68,2.43-6.61,2.43-11.77,0-4.61-.64-8.64-1.91-12.08-1.27-3.44-2.99-6.06-5.16-7.85-2.17-1.79-4.53-2.68-7.07-2.68-3.1,0-5.44,1.27-7.02,3.82-1.58,2.55-2.38,6.3-2.38,11.25,0,4.47.6,8.48,1.81,12.03,1.2,3.55,2.89,6.32,5.06,8.31,2.17,2,4.59,2.99,7.28,2.99,3.03,0,5.35-1.34,6.97-4.03Z"/></svg>