<?xml version="1.0" encoding="UTF-8"?><svg id="aa" xmlns="http://www.w3.org/2000/svg" xmlns:xlink="http://www.w3.org/1999/xlink" viewBox="0 0 2015.46 494.26"><defs><style>.an{fill:#153f3b;}.ao{fill:url(#c);}.ap{fill:url(#d);}.aq{fill:url(#h);}.ar{fill:url(#g);}.as{fill:url(#e);}.at{fill:url(#i);}.au{fill:url(#f);}.av{fill:#f4efe7;}.aw{fill:url(#b);}</style><linearGradient id="b" x1="-614.58" y1="16861.19" x2="164.85" y2="17640.62" gradientTransform="translate(564 17626.5192) scale(1 -1)" gradientUnits="userSpaceOnUse"><stop offset=".1" stop-color="#00a594"/><stop offset=".45" stop-color="#2f7d73"/><stop offset=".93" stop-color="#8fbdb1"/></linearGradient><linearGradient id="c" x1="-177.1" y1="17531.07" x2="389.06" y2="16964.91" gradientTransform="translate(564 17626.5192) scale(1 -1)" gradientUnits="userSpaceOnUse"><stop offset=".15" stop-color="#e8c58f"/><stop offset=".55" stop-color="#d7af72"/><stop offset=".95" stop-color="#b88d55"/></linearGradient><linearGradient id="d" x1="-348.04" y1="17516.83" x2="308.13" y2="16860.66" gradientTransform="translate(564 17626.5192) scale(1 -1)" gradientUnits="userSpaceOnUse"><stop offset=".02" stop-color="#f4dfc0" stop-opacity="0"/><stop offset=".43" stop-color="#f1d3a0" stop-opacity=".85"/><stop offset=".9" stop-color="#c59a61" stop-opacity="0"/></linearGradient><linearGradient id="e" x1="-419.79" y1="17491.56" x2="-25.55" y2="17095.55" gradientTransform="translate(564 17626.5192) scale(1 -1)" gradientUnits="userSpaceOnUse"><stop offset=".03" stop-color="#0e6f66"/><stop offset=".45" stop-color="#167f75" stop-opacity=".65"/><stop offset=".93" stop-color="#5fa99a" stop-opacity="0"/></linearGradient><linearGradient id="f" x1="-307.46" y1="16585.86" x2="250.48" y2="17143.8" gradientTransform="translate(564 17626.5192) scale(1 -1)" gradientUnits="userSpaceOnUse"><stop offset=".11" stop-color="#8fbdb1"/><stop offset=".55" stop-color="#bfd5cb"/><stop offset="1" stop-color="#c7d3ce"/></linearGradient><linearGradient id="g" x1="-3.35" y1="17094.22" x2="-410.5" y2="16687.07" gradientTransform="translate(564 17626.5192) scale(1 -1)" gradientUnits="userSpaceOnUse"><stop offset=".28" stop-color="#00a594"/><stop offset=".52" stop-color="#2f7d73" stop-opacity=".55"/><stop offset=".83" stop-color="#8fbdb1" stop-opacity="0"/></linearGradient><linearGradient id="h" x1="-20.46" y1="17160.09" x2="292.73" y2="16846.88" gradientTransform="translate(564 17626.5192) scale(1 -1)" gradientUnits="userSpaceOnUse"><stop offset=".04" stop-color="#4f8f84"/><stop offset=".55" stop-color="#7fafa4" stop-opacity=".42"/><stop offset="1" stop-color="#bfd5cb" stop-opacity="0"/></linearGradient><linearGradient id="i" x1="-334.22" y1="16741.8" x2="57.02" y2="17133.03" gradientTransform="translate(564 17626.5192) scale(1 -1)" gradientUnits="userSpaceOnUse"><stop offset=".05" stop-color="#bfd8d0" stop-opacity="0"/><stop offset=".3" stop-color="#a9cdc3"/><stop offset=".65" stop-color="#ddebe6"/><stop offset="1" stop-color="#ddebe6" stop-opacity="0"/></linearGradient><symbol id="a" viewBox="0 0 928.01 1008.52"><path class="an" d="M826.11,177.45L566.08,27.32c-63.25-36.42-140.87-36.42-204.13,0L101.92,177.45C38.83,213.87,0,281.27,0,354.11v300.29c0,72.84,38.81,140.24,101.9,176.66l260.03,150.14c63.25,36.42,140.87,36.42,204.13,0l260.03-150.14c2.08-1.29,4.16-2.55,6.06-3.84,59.58-37.05,95.84-102.39,95.84-172.83v-300.29c0-72.84-38.81-140.24-101.9-176.66h.02ZM596.75,445.3c32.59,32.59,32.59,85.29,0,117.88l-73.8,73.8c-32.59,32.59-85.29,32.59-117.88,0l-73.8-73.8c-32.59-32.59-32.59-85.29,0-117.88l73.8-73.8c32.59-32.59,85.29-32.59,117.88,0l73.8,73.8h0Z"/><path class="aw" d="M363.22,211.79l159.73,159.73c-32.59-32.59-85.29-32.59-117.88,0l-73.8,73.8c-32.59,32.59-32.59,85.29,0,117.88l73.8,73.8c32.59,32.59,85.29,32.59,117.88,0l-159.73,159.73c-69.17,69.31-176.34,83.37-261.32,34.34C38.83,794.62,0,727.23,0,654.39v-300.29c0-72.82,38.83-140.22,101.92-176.64,84.96-49.03,192.15-34.97,261.32,34.34h-.02Z"/><path class="ao" d="M928.01,354.11v300.29c0,70.44-36.26,135.77-95.84,172.83,44.73-30.83,51.44-95.68,12.14-134.81l-321.37-320.88-159.73-159.73c-69.17-69.31-176.34-83.37-261.32-34.34L361.95,27.32c63.25-36.42,140.87-36.42,204.13,0l260.03,150.14c63.09,36.42,101.9,103.82,101.9,176.66Z"/><path class="ap" d="M881.12,763.57c2.65-29.48-7.84-58.38-28.77-79.21l-321.37-320.88-159.71-159.73c-42.93-43.03-100.12-66.74-161.03-66.74-5.55,0-11.1.2-16.61.61v11.47c5.53-.43,11.08-.71,16.61-.71,56.01,0,111.37,21.71,152.97,63.4l159.73,159.73,321.37,320.88c20.61,20.53,28.44,48.09,24.89,74.15h11.59c.12-1,.22-1.98.31-2.98l.02.02Z"/><path class="as" d="M522.94,371.52l-159.73-159.73c-60.23-60.36-149.28-78.8-227.39-50.17-.78.31-1.59.61-2.37.92h-.04c-10.75,4.08-21.3,9.04-31.52,14.94-9.77,5.65-18.89,12.12-27.44,19.14-2.22,1.82-4.43,3.63-6.57,5.55,83.01-36.38,180.84-19.02,245.91,46.2l109.45,109.45c31.75-17.85,72.64-13.32,99.68,13.71h.02Z"/><path class="au" d="M844.31,692.4c39.3,39.14,32.59,103.98-12.14,134.81-1.92,1.29-4,2.55-6.06,3.84l-260.03,150.14c-63.25,36.42-140.87,36.42-204.13,0l-260.03-150.14c84.96,49.03,192.15,34.97,261.32-34.34l159.73-159.73,73.8-73.8c32.59-32.59,32.59-85.29,0-117.88l247.57,247.1h-.02Z"/><path class="ar" d="M522.94,636.98c-26,26-64.64,30.89-95.82,15.41l-144.32,144.32c-31.65,31.71-71.27,51.73-113.08,59.54,68.97,13.14,141.83-7.77,193.47-59.54l159.73-159.73h.02Z"/><path class="aq" d="M596.75,445.3c26.97,26.97,31.26,67.62,13.57,99.35l196.86,196.58c24.06,23.98,31.18,57.3,23.34,87.02.55-.35,1.14-.69,1.65-1.04,44.73-30.83,51.44-95.68,12.14-134.81l-247.57-247.1h0Z"/><path class="at" d="M632.19,496.76h-11.37c2.12,23.75-5.88,48.22-24.08,66.42l-73.8,73.8-159.73,159.73c-41.6,41.71-96.96,63.4-152.97,63.4-5.53,0-11.08-.29-16.61-.71v11.47c5.53.41,11.06.61,16.61.61,60.91,0,118.08-23.71,161.01-66.74l159.73-159.73,73.8-73.8c20.36-20.36,29.5-47.79,27.4-74.48v.04Z"/></symbol></defs><path class="av" d="M585.64,187.76c5.66,8.73,12.7,16.3,21.12,22.73,8.42,6.43,19.82,14.09,34.21,22.96,15.61,9.8,27.94,18.22,36.97,25.26,9.03,7.05,16.68,15.69,22.96,25.95,6.27,10.26,9.41,22.27,9.41,36.05,0,15.61-4.06,29.55-12.17,41.79-8.12,12.25-19.6,21.81-34.44,28.7-14.85,6.89-31.77,10.33-50.75,10.33-12.86,0-26.1-1.69-39.72-5.05-13.63-3.37-23.96-7.5-31-12.4-2.76-1.84-4.29-4.74-4.59-8.73l-2.76-69.8v-.46c0-1.22.76-1.91,2.3-2.07,1.53-.15,2.45.39,2.76,1.61,10.1,25.42,21.66,46.23,34.67,62.46,13.01,16.23,29.62,24.34,49.83,24.34,13.16,0,24.18-3.59,33.07-10.79,8.88-7.19,13.32-19.21,13.32-36.05,0-13.47-2.99-25.26-8.96-35.36s-13.32-18.52-22.04-25.26c-8.73-6.73-20.59-15-35.59-24.8-14.7-9.49-26.18-17.52-34.44-24.11-8.27-6.58-15.31-14.7-21.12-24.34-5.82-9.64-8.73-20.9-8.73-33.75,0-15.92,4.43-29.39,13.32-40.41,8.88-11.02,20.44-19.21,34.67-24.57,14.24-5.35,29.16-8.04,44.78-8.04,10.4,0,20.82,1,31.23,2.99,10.4,1.99,19.13,4.52,26.18,7.58,4.59,1.84,6.89,4.75,6.89,8.73l1.38,62.46c0,.92-.85,1.54-2.53,1.84-1.69.31-2.68,0-2.98-.92-6.13-18.67-14.32-35.59-24.57-50.75-10.26-15.16-25.65-22.73-46.15-22.73-13.78,0-24.73,3.98-32.84,11.94-8.12,7.96-12.17,18.83-12.17,32.61,0,11.33,2.83,21.35,8.5,30.08Z"/><path class="av" d="M961.98,367.09c.92,0,1.68.77,2.3,2.3.61,1.54.46,2.6-.46,3.21l-60.16,28.93-1.84.46c-3.06,0-5.82-3.44-8.27-10.33-2.45-6.89-3.83-16.14-4.13-27.78-21.43,24.8-44.09,37.2-67.97,37.2-16.53,0-29.39-5.12-38.58-15.38-9.19-10.25-13.78-24.26-13.78-42.02v-68.43c0-20.82-4.75-31.23-14.24-31.23-3.06,0-7.35,1.23-12.86,3.67h-.46c-1.23,0-2.15-.76-2.76-2.3-.62-1.53-.46-2.6.46-3.21l58.32-27.09,1.84-.46c1.22,0,2.6.62,4.13,1.84,1.53,1.23,2.3,2.3,2.3,3.21v104.25c0,17.15,3.14,29.93,9.41,38.35,6.27,8.42,15.84,12.63,28.7,12.63,7.65,0,15.54-1.84,23.65-5.51,8.11-3.67,15.38-8.73,21.81-15.16v-78.99c0-10.71-1.15-18.6-3.44-23.65-2.3-5.05-5.9-7.58-10.79-7.58-2.76,0-7.05,1.23-12.86,3.67h-.46c-1.23,0-2.15-.84-2.76-2.53-.62-1.68-.31-2.68.92-2.99l57.86-27.09c.61-.3,1.38-.46,2.3-.46,1.22,0,2.6.62,4.13,1.84,1.53,1.23,2.3,2.3,2.3,3.21v124.46c0,10.72,1.07,18.22,3.21,22.5,2.14,4.29,5.66,6.43,10.56,6.43,3.67,0,10.56-1.84,20.67-5.51l.92-.46Z"/><path class="av" d="M1147.28,222.43c11.48,6.43,20.67,16.07,27.55,28.93,6.89,12.86,10.33,28.47,10.33,46.84,0,22.04-4.67,40.87-14.01,56.49-9.34,15.61-21.66,27.4-36.97,35.36-15.31,7.96-31.54,11.94-48.68,11.94-23.88,0-45.31-7.04-64.29-21.12l-39.04,17.91h-.92c-1.23,0-1.99-.54-2.3-1.61-.31-1.08,0-1.91.92-2.53,8.27-5.2,14.31-11.25,18.14-18.14,3.82-6.89,5.74-16.15,5.74-27.78V124.15c0-10.71-1.08-18.44-3.21-23.19-2.15-4.74-5.82-7.12-11.02-7.12-3.67,0-9.64,1.84-17.91,5.51h-.46c-1.23,0-2.15-.76-2.76-2.3-.62-1.53-.62-2.6,0-3.21l63.83-30.31,2.3-.46c1.22,0,2.6.62,4.13,1.84,1.53,1.23,2.3,2.3,2.3,3.21v178.65c10.1-10.4,20.67-18.67,31.69-24.8,11.02-6.12,23.42-9.19,37.2-9.19s25.95,3.21,37.43,9.64ZM1131.9,372.6c7.96-13.47,11.94-32.61,11.94-57.41,0-26.94-4.82-47.22-14.47-60.85-9.64-13.62-22.58-20.44-38.81-20.44s-32.15,7.05-49.6,21.12v70.26c0,15.92,2.98,28.93,8.96,39.04s13.32,17.38,22.04,21.81c8.73,4.44,17.22,6.66,25.49,6.66,15,0,26.48-6.73,34.44-20.21Z"/><path class="av" d="M1386.77,69.73c9.49,4.75,14.24,11.1,14.24,19.06,0,6.13-2.07,10.95-6.2,14.47-4.13,3.52-8.96,5.28-14.47,5.28-6.13,0-10.79-1.38-14.01-4.13-3.21-2.76-6.2-7.04-8.96-12.86-3.67-6.43-7.43-11.25-11.25-14.47-3.83-3.21-9.26-4.82-16.3-4.82-15.31,0-27.4,9.95-36.28,29.85-8.88,19.91-13.32,50.67-13.32,92.31v28.47c15.92-.3,33.68-1.68,53.27-4.13.92,0,1.68,1.08,2.3,3.21.61,2.15.92,4.75.92,7.81,0,2.76-.46,5.51-1.38,8.27s-1.99,3.98-3.21,3.67c-18.68-4.28-35.98-6.58-51.89-6.89v124c0,9.49.99,16.38,2.98,20.67,1.99,4.29,5.89,7.2,11.71,8.73,5.81,1.54,15,2.3,27.55,2.3,1.22,0,1.84.92,1.84,2.75s-.62,2.76-1.84,2.76l-30.77-.46c-6.74-.3-16.99-.46-30.77-.46l-27.1.46c-4.59.31-11.18.46-19.75.46-1.23,0-1.84-.92-1.84-2.76s.61-2.75,1.84-2.75c8.27,0,14.39-.84,18.37-2.53,3.98-1.68,6.73-4.66,8.27-8.96,1.53-4.28,2.3-11.02,2.3-20.21v-103.33c0-10.1-2-16.53-5.97-19.29-3.98-2.76-12.25-4.13-24.8-4.13-.92,0-1.38-1.38-1.38-4.13,0-2.45.46-3.67,1.38-3.67,11.32,0,19.06-1.45,23.19-4.36,4.13-2.91,6.35-8.19,6.66-15.84,1.53-49.9,10.86-85.95,28.01-108.15,17.14-22.19,42.86-33.29,77.15-33.29,16.83,0,30,2.38,39.49,7.12Z"/><path class="av" d="M1400.09,388.9c-14.09-8.73-24.96-20.51-32.61-35.36-7.66-14.85-11.48-31-11.48-48.45,0-19.9,4.97-36.81,14.93-50.75,9.95-13.93,22.65-24.34,38.12-31.23,15.46-6.89,31.3-10.33,47.53-10.33,18.67,0,34.97,4.44,48.91,13.32,13.93,8.88,24.57,20.59,31.92,35.13,7.35,14.55,11.02,30.08,11.02,46.61,0,18.37-4.52,34.75-13.55,49.14-9.03,14.39-21.2,25.49-36.51,33.29-15.31,7.81-31.85,11.71-49.6,11.71s-34.6-4.36-48.68-13.09ZM1493.54,374.9c7.19-11.94,10.79-29.39,10.79-52.35,0-20.51-2.83-38.42-8.5-53.73-5.67-15.31-13.32-26.94-22.96-34.9-9.64-7.96-20.13-11.94-31.46-11.94-13.78,0-24.19,5.67-31.23,16.99-7.05,11.33-10.56,28.01-10.56,50.06,0,19.91,2.68,37.74,8.04,53.5,5.35,15.77,12.86,28.09,22.5,36.97,9.64,8.88,20.44,13.32,32.38,13.32,13.47,0,23.8-5.97,31-17.91Z"/><path class="av" d="M1579.65,393.27c0-1.84.46-2.75,1.38-2.75,10.1,0,16.99-2.22,20.67-6.66,3.67-4.43,5.51-12.78,5.51-25.03V124.15c0-10.71-1-18.44-2.99-23.19-1.99-4.74-5.59-7.12-10.79-7.12-4.59,0-10.72,1.84-18.37,5.51h-.46c-1.23,0-2.15-.76-2.76-2.3-.62-1.53-.62-2.6,0-3.21l64.75-30.31,1.84-.46c1.22,0,2.68.62,4.36,1.84,1.68,1.23,2.53,2.3,2.53,3.21v290.7c0,12.56,1.68,20.97,5.05,25.26,3.37,4.29,10.25,6.43,20.67,6.43.92,0,1.38.92,1.38,2.75s-.46,2.76-1.38,2.76c-7.35,0-13.32-.15-17.91-.46l-27.1-.46-26.64.46c-4.59.31-10.72.46-18.37.46-.92,0-1.38-.92-1.38-2.76Z"/><path class="av" d="M1704.56,393.27c0-1.84.46-2.75,1.38-2.75,10.4,0,17.29-2.14,20.67-6.43,3.37-4.28,5.05-12.7,5.05-25.26v-83.58c0-10.4-1.08-17.98-3.21-22.73-2.15-4.74-5.82-7.12-11.02-7.12-4.59,0-10.56,1.84-17.91,5.51h-.46c-1.23,0-2.15-.76-2.76-2.3-.62-1.53-.46-2.6.46-3.21l66.13-30.77,1.38-.46c1.22,0,2.53.69,3.9,2.07,1.38,1.38,2.07,2.53,2.07,3.44v9.64c-.62,12.86-.92,28.01-.92,45.46v84.04c0,12.56,1.76,20.97,5.28,25.26,3.52,4.29,10.48,6.43,20.9,6.43.92,0,1.38.92,1.38,2.75s-.46,2.76-1.38,2.76c-7.66,0-13.78-.15-18.37-.46l-26.64-.46-26.64.46c-4.29.31-10.26.46-17.91.46-.92,0-1.38-.92-1.38-2.76ZM1729.59,159.51c-4.44-4.28-6.66-10.41-6.66-18.37s2.22-13.55,6.66-17.68c4.43-4.13,10.63-6.2,18.6-6.2s13.62,2.07,17.91,6.2c4.28,4.13,6.43,10.03,6.43,17.68s-2.07,14.09-6.2,18.37c-4.13,4.29-10.18,6.43-18.14,6.43s-14.17-2.14-18.6-6.43Z"/><path class="av" d="M1867.13,388.9c-14.09-8.73-24.96-20.51-32.61-35.36-7.66-14.85-11.48-31-11.48-48.45,0-19.9,4.97-36.81,14.93-50.75,9.95-13.93,22.65-24.34,38.12-31.23,15.46-6.89,31.3-10.33,47.53-10.33,18.67,0,34.97,4.44,48.91,13.32,13.93,8.88,24.57,20.59,31.92,35.13,7.35,14.55,11.02,30.08,11.02,46.61,0,18.37-4.52,34.75-13.55,49.14-9.03,14.39-21.2,25.49-36.51,33.29-15.31,7.81-31.85,11.71-49.6,11.71s-34.6-4.36-48.68-13.09ZM1960.59,374.9c7.19-11.94,10.79-29.39,10.79-52.35,0-20.51-2.83-38.42-8.5-53.73-5.67-15.31-13.32-26.94-22.96-34.9-9.64-7.96-20.13-11.94-31.46-11.94-13.78,0-24.19,5.67-31.23,16.99-7.05,11.33-10.56,28.01-10.56,50.06,0,19.91,2.68,37.74,8.04,53.5,5.35,15.77,12.86,28.09,22.5,36.97,9.64,8.88,20.44,13.32,32.38,13.32,13.47,0,23.8-5.97,31-17.91Z"/><use id="ab" width="928.01" height="1008.52" transform="translate(0 26.87) scale(.44)" xlink:href="#a"/></svg>