<?xml version="1.0" encoding="UTF-8"?><svg id="v" xmlns="http://www.w3.org/2000/svg" xmlns:xlink="http://www.w3.org/1999/xlink" viewBox="0 0 1444.51 494.26"><defs><style>.ap{fill:#153f3b;}.aq{fill:url(#c);}.ar{fill:url(#d);}.as{fill:url(#h);}.at{fill:url(#g);}.au{fill:url(#e);}.av{fill:url(#i);}.aw{fill:url(#f);}.ax{fill:#f4efe7;}.ay{fill:url(#b);}</style><linearGradient id="b" x1="-614.58" y1="16861.19" x2="164.85" y2="17640.62" gradientTransform="translate(564 17626.5192) scale(1 -1)" gradientUnits="userSpaceOnUse"><stop offset=".1" stop-color="#00a594"/><stop offset=".45" stop-color="#2f7d73"/><stop offset=".93" stop-color="#8fbdb1"/></linearGradient><linearGradient id="c" x1="-177.1" y1="17531.07" x2="389.06" y2="16964.91" gradientTransform="translate(564 17626.5192) scale(1 -1)" gradientUnits="userSpaceOnUse"><stop offset=".15" stop-color="#e8c58f"/><stop offset=".55" stop-color="#d7af72"/><stop offset=".95" stop-color="#b88d55"/></linearGradient><linearGradient id="d" x1="-348.04" y1="17516.83" x2="308.13" y2="16860.66" gradientTransform="translate(564 17626.5192) scale(1 -1)" gradientUnits="userSpaceOnUse"><stop offset=".02" stop-color="#f4dfc0" stop-opacity="0"/><stop offset=".43" stop-color="#f1d3a0" stop-opacity=".85"/><stop offset=".9" stop-color="#c59a61" stop-opacity="0"/></linearGradient><linearGradient id="e" x1="-419.79" y1="17491.56" x2="-25.55" y2="17095.55" gradientTransform="translate(564 17626.5192) scale(1 -1)" gradientUnits="userSpaceOnUse"><stop offset=".03" stop-color="#0e6f66"/><stop offset=".45" stop-color="#167f75" stop-opacity=".65"/><stop offset=".93" stop-color="#5fa99a" stop-opacity="0"/></linearGradient><linearGradient id="f" x1="-307.46" y1="16585.86" x2="250.48" y2="17143.8" gradientTransform="translate(564 17626.5192) scale(1 -1)" gradientUnits="userSpaceOnUse"><stop offset=".11" stop-color="#8fbdb1"/><stop offset=".55" stop-color="#bfd5cb"/><stop offset="1" stop-color="#c7d3ce"/></linearGradient><linearGradient id="g" x1="-3.35" y1="17094.22" x2="-410.5" y2="16687.07" gradientTransform="translate(564 17626.5192) scale(1 -1)" gradientUnits="userSpaceOnUse"><stop offset=".28" stop-color="#00a594"/><stop offset=".52" stop-color="#2f7d73" stop-opacity=".55"/><stop offset=".83" stop-color="#8fbdb1" stop-opacity="0"/></linearGradient><linearGradient id="h" x1="-20.46" y1="17160.09" x2="292.73" y2="16846.88" gradientTransform="translate(564 17626.5192) scale(1 -1)" gradientUnits="userSpaceOnUse"><stop offset=".04" stop-color="#4f8f84"/><stop offset=".55" stop-color="#7fafa4" stop-opacity=".42"/><stop offset="1" stop-color="#bfd5cb" stop-opacity="0"/></linearGradient><linearGradient id="i" x1="-334.22" y1="16741.8" x2="57.02" y2="17133.03" gradientTransform="translate(564 17626.5192) scale(1 -1)" gradientUnits="userSpaceOnUse"><stop offset=".05" stop-color="#bfd8d0" stop-opacity="0"/><stop offset=".3" stop-color="#a9cdc3"/><stop offset=".65" stop-color="#ddebe6"/><stop offset="1" stop-color="#ddebe6" stop-opacity="0"/></linearGradient><symbol id="a" viewBox="0 0 928.01 1008.52"><path class="ap" d="M826.11,177.45L566.08,27.32c-63.25-36.42-140.87-36.42-204.13,0L101.92,177.45C38.83,213.87,0,281.27,0,354.11v300.29c0,72.84,38.81,140.24,101.9,176.66l260.03,150.14c63.25,36.42,140.87,36.42,204.13,0l260.03-150.14c2.08-1.29,4.16-2.55,6.06-3.84,59.58-37.05,95.84-102.39,95.84-172.83v-300.29c0-72.84-38.81-140.24-101.9-176.66h.02ZM596.75,445.3c32.59,32.59,32.59,85.29,0,117.88l-73.8,73.8c-32.59,32.59-85.29,32.59-117.88,0l-73.8-73.8c-32.59-32.59-32.59-85.29,0-117.88l73.8-73.8c32.59-32.59,85.29-32.59,117.88,0l73.8,73.8h0Z"/><path class="ay" d="M363.22,211.79l159.73,159.73c-32.59-32.59-85.29-32.59-117.88,0l-73.8,73.8c-32.59,32.59-32.59,85.29,0,117.88l73.8,73.8c32.59,32.59,85.29,32.59,117.88,0l-159.73,159.73c-69.17,69.31-176.34,83.37-261.32,34.34C38.83,794.62,0,727.23,0,654.39v-300.29c0-72.82,38.83-140.22,101.92-176.64,84.96-49.03,192.15-34.97,261.32,34.34h-.02Z"/><path class="aq" d="M928.01,354.11v300.29c0,70.44-36.26,135.77-95.84,172.83,44.73-30.83,51.44-95.68,12.14-134.81l-321.37-320.88-159.73-159.73c-69.17-69.31-176.34-83.37-261.32-34.34L361.95,27.32c63.25-36.42,140.87-36.42,204.13,0l260.03,150.14c63.09,36.42,101.9,103.82,101.9,176.66Z"/><path class="ar" d="M881.12,763.57c2.65-29.48-7.84-58.38-28.77-79.21l-321.37-320.88-159.71-159.73c-42.93-43.03-100.12-66.74-161.03-66.74-5.55,0-11.1.2-16.61.61v11.47c5.53-.43,11.08-.71,16.61-.71,56.01,0,111.37,21.71,152.97,63.4l159.73,159.73,321.37,320.88c20.61,20.53,28.44,48.09,24.89,74.15h11.59c.12-1,.22-1.98.31-2.98l.02.02Z"/><path class="au" d="M522.94,371.52l-159.73-159.73c-60.23-60.36-149.28-78.8-227.39-50.17-.78.31-1.59.61-2.37.92h-.04c-10.75,4.08-21.3,9.04-31.52,14.94-9.77,5.65-18.89,12.12-27.44,19.14-2.22,1.82-4.43,3.63-6.57,5.55,83.01-36.38,180.84-19.02,245.91,46.2l109.45,109.45c31.75-17.85,72.64-13.32,99.68,13.71h.02Z"/><path class="aw" d="M844.31,692.4c39.3,39.14,32.59,103.98-12.14,134.81-1.92,1.29-4,2.55-6.06,3.84l-260.03,150.14c-63.25,36.42-140.87,36.42-204.13,0l-260.03-150.14c84.96,49.03,192.15,34.97,261.32-34.34l159.73-159.73,73.8-73.8c32.59-32.59,32.59-85.29,0-117.88l247.57,247.1h-.02Z"/><path class="at" d="M522.94,636.98c-26,26-64.64,30.89-95.82,15.41l-144.32,144.32c-31.65,31.71-71.27,51.73-113.08,59.54,68.97,13.14,141.83-7.77,193.47-59.54l159.73-159.73h.02Z"/><path class="as" d="M596.75,445.3c26.97,26.97,31.26,67.62,13.57,99.35l196.86,196.58c24.06,23.98,31.18,57.3,23.34,87.02.55-.35,1.14-.69,1.65-1.04,44.73-30.83,51.44-95.68,12.14-134.81l-247.57-247.1h0Z"/><path class="av" d="M632.19,496.76h-11.37c2.12,23.75-5.88,48.22-24.08,66.42l-73.8,73.8-159.73,159.73c-41.6,41.71-96.96,63.4-152.97,63.4-5.53,0-11.08-.29-16.61-.71v11.47c5.53.41,11.06.61,16.61.61,60.91,0,118.08-23.71,161.01-66.74l159.73-159.73,73.8-73.8c20.36-20.36,29.5-47.79,27.4-74.48v.04Z"/></symbol></defs><g id="w"><path class="ax" d="M48.35,207.77c5.37,8.28,12.05,15.46,20.04,21.56,7.98,6.1,18.8,13.36,32.46,21.78,14.81,9.3,26.5,17.28,35.07,23.96,8.56,6.68,15.83,14.89,21.78,24.61,5.95,9.73,8.93,21.13,8.93,34.2,0,14.81-3.85,28.03-11.54,39.64-7.7,11.62-18.59,20.69-32.67,27.23-14.09,6.53-30.13,9.8-48.14,9.8-12.2,0-24.76-1.6-37.68-4.79-12.93-3.19-22.73-7.11-29.41-11.76-2.61-1.74-4.07-4.5-4.36-8.28L.22,319.51v-.44c0-1.16.72-1.81,2.18-1.96,1.45-.14,2.32.37,2.61,1.52,9.58,24.11,20.54,43.86,32.89,59.25,12.34,15.4,28.1,23.09,47.27,23.09,12.48,0,22.94-3.41,31.37-10.24,8.42-6.82,12.63-18.22,12.63-34.2,0-12.78-2.83-23.96-8.5-33.54s-12.63-17.57-20.91-23.96c-8.28-6.38-19.54-14.23-33.76-23.52-13.94-9-24.83-16.62-32.67-22.87-7.84-6.24-14.53-13.94-20.04-23.09-5.52-9.15-8.28-19.82-8.28-32.02,0-15.1,4.21-27.88,12.63-38.34,8.42-10.46,19.39-18.22,32.89-23.31,13.5-5.08,27.66-7.62,42.47-7.62,9.87,0,19.75.95,29.62,2.83,9.87,1.89,18.15,4.29,24.83,7.19,4.36,1.74,6.53,4.51,6.53,8.28l1.31,59.25c0,.87-.8,1.46-2.4,1.74-1.6.29-2.55,0-2.83-.87-5.81-17.71-13.58-33.76-23.31-48.14-9.73-14.38-24.33-21.56-43.78-21.56-13.07,0-23.46,3.78-31.15,11.33-7.7,7.56-11.54,17.86-11.54,30.93,0,10.75,2.68,20.26,8.06,28.53Z"/><path class="ax" d="M405.36,377.89c.87,0,1.59.73,2.18,2.18.58,1.46.44,2.47-.44,3.05l-57.07,27.45-1.74.44c-2.91,0-5.52-3.27-7.84-9.8-2.33-6.53-3.63-15.32-3.92-26.36-20.33,23.52-41.82,35.29-64.47,35.29-15.68,0-27.88-4.86-36.59-14.59-8.71-9.73-13.07-23.01-13.07-39.86v-64.91c0-19.75-4.51-29.62-13.5-29.62-2.91,0-6.97,1.16-12.2,3.48h-.44c-1.16,0-2.04-.72-2.61-2.18-.59-1.45-.44-2.46.44-3.05l55.33-25.7,1.74-.44c1.16,0,2.46.58,3.92,1.74,1.45,1.16,2.18,2.18,2.18,3.05v98.89c0,16.27,2.97,28.39,8.93,36.38,5.95,7.99,15.03,11.98,27.23,11.98,7.26,0,14.74-1.74,22.43-5.23,7.69-3.49,14.59-8.28,20.69-14.38v-74.93c0-10.16-1.09-17.64-3.27-22.44-2.18-4.79-5.59-7.19-10.24-7.19-2.61,0-6.68,1.16-12.2,3.48h-.44c-1.16,0-2.04-.8-2.61-2.4-.59-1.59-.29-2.54.87-2.83l54.89-25.7c.58-.29,1.31-.44,2.18-.44,1.16,0,2.46.58,3.92,1.74,1.45,1.16,2.18,2.18,2.18,3.05v118.06c0,10.17,1.01,17.28,3.05,21.35,2.03,4.07,5.37,6.1,10.02,6.1,3.49,0,10.02-1.74,19.6-5.23l.87-.44Z"/><path class="ax" d="M581.13,240.66c10.89,6.1,19.6,15.25,26.14,27.45,6.54,12.2,9.8,27.01,9.8,44.44,0,20.91-4.43,38.77-13.29,53.58-8.86,14.81-20.55,26-35.07,33.54-14.53,7.55-29.92,11.33-46.18,11.33-22.65,0-42.99-6.68-60.99-20.04l-37.03,16.99h-.87c-1.16,0-1.89-.51-2.18-1.53-.29-1.02,0-1.81.87-2.4,7.84-4.94,13.57-10.67,17.21-17.21,3.63-6.53,5.45-15.32,5.45-26.36v-213.03c0-10.16-1.02-17.49-3.05-22-2.04-4.5-5.52-6.75-10.46-6.75-3.49,0-9.15,1.74-16.99,5.23h-.44c-1.16,0-2.04-.72-2.61-2.18-.59-1.45-.59-2.46,0-3.05l60.55-28.75,2.18-.44c1.16,0,2.46.59,3.92,1.74,1.45,1.16,2.18,2.18,2.18,3.05v169.46c9.58-9.87,19.6-17.71,30.06-23.52,10.46-5.81,22.22-8.71,35.29-8.71s24.61,3.05,35.5,9.15ZM566.54,383.12c7.55-12.78,11.33-30.93,11.33-54.46,0-25.55-4.57-44.8-13.72-57.72-9.15-12.92-21.42-19.39-36.81-19.39s-30.5,6.68-47.05,20.04v66.65c0,15.1,2.83,27.45,8.5,37.03,5.66,9.58,12.63,16.49,20.91,20.69,8.28,4.21,16.34,6.32,24.18,6.32,14.23,0,25.12-6.38,32.67-19.17Z"/><path class="ax" d="M808.32,95.81c9,4.51,13.5,10.53,13.5,18.08,0,5.81-1.96,10.39-5.88,13.72-3.92,3.34-8.5,5.01-13.72,5.01-5.81,0-10.24-1.31-13.29-3.92-3.05-2.61-5.88-6.68-8.5-12.2-3.48-6.1-7.04-10.67-10.67-13.72-3.63-3.05-8.79-4.57-15.46-4.57-14.53,0-26,9.44-34.42,28.32-8.43,18.88-12.63,48.07-12.63,87.56v27.01c15.1-.29,31.95-1.59,50.53-3.92.87,0,1.59,1.02,2.18,3.05.58,2.04.87,4.51.87,7.41,0,2.61-.44,5.23-1.31,7.84-.87,2.61-1.89,3.78-3.05,3.49-17.72-4.06-34.13-6.24-49.23-6.53v117.62c0,9.01.94,15.54,2.83,19.6,1.89,4.07,5.59,6.83,11.11,8.28,5.51,1.46,14.23,2.18,26.14,2.18,1.16,0,1.74.87,1.74,2.61s-.58,2.61-1.74,2.61l-29.19-.44c-6.39-.29-16.12-.44-29.19-.44l-25.7.44c-4.36.29-10.61.44-18.73.44-1.16,0-1.74-.87-1.74-2.61s.58-2.61,1.74-2.61c7.84,0,13.65-.8,17.43-2.4,3.77-1.59,6.38-4.42,7.84-8.5,1.45-4.06,2.18-10.46,2.18-19.17v-98.02c0-9.58-1.89-15.68-5.66-18.3-3.78-2.61-11.62-3.92-23.52-3.92-.87,0-1.31-1.31-1.31-3.92,0-2.32.44-3.48,1.31-3.48,10.74,0,18.08-1.38,22-4.14,3.92-2.76,6.02-7.77,6.32-15.03,1.45-47.33,10.3-81.53,26.57-102.59,16.26-21.05,40.66-31.58,73.19-31.58,15.97,0,28.46,2.25,37.46,6.75Z"/></g><use id="x" width="928.01" height="1008.52" transform="translate(793.49 177.55) scale(.22)" xlink:href="#a"/><g id="y"><path class="ax" d="M1031.1,402.72c0-1.74.44-2.61,1.31-2.61,9.58,0,16.12-2.1,19.6-6.32,3.49-4.21,5.23-12.12,5.23-23.74v-222.61c0-10.16-.95-17.49-2.83-22-1.89-4.5-5.3-6.75-10.24-6.75-4.36,0-10.17,1.74-17.43,5.23h-.44c-1.16,0-2.04-.72-2.61-2.18-.59-1.45-.59-2.46,0-3.05l61.42-28.75,1.74-.44c1.16,0,2.54.59,4.14,1.74,1.59,1.16,2.4,2.18,2.4,3.05v275.76c0,11.91,1.59,19.9,4.79,23.96,3.19,4.07,9.73,6.1,19.6,6.1.87,0,1.31.87,1.31,2.61s-.44,2.61-1.31,2.61c-6.97,0-12.63-.14-16.99-.44l-25.7-.44-25.27.44c-4.36.29-10.17.44-17.42.44-.87,0-1.31-.87-1.31-2.61Z"/><path class="ax" d="M1149.59,402.72c0-1.74.44-2.61,1.31-2.61,9.87,0,16.4-2.03,19.6-6.1,3.19-4.06,4.79-12.05,4.79-23.96v-79.29c0-9.87-1.02-17.06-3.05-21.56-2.04-4.5-5.52-6.75-10.46-6.75-4.36,0-10.02,1.74-16.99,5.23h-.44c-1.16,0-2.04-.72-2.61-2.18-.58-1.45-.44-2.46.44-3.05l62.73-29.19,1.31-.44c1.16,0,2.4.65,3.7,1.96,1.31,1.31,1.96,2.4,1.96,3.27v9.15c-.58,12.2-.87,26.57-.87,43.13v79.72c0,11.91,1.67,19.9,5.01,23.96,3.34,4.07,9.95,6.1,19.82,6.1.87,0,1.31.87,1.31,2.61s-.44,2.61-1.31,2.61c-7.26,0-13.07-.14-17.43-.44l-25.27-.44-25.27.44c-4.07.29-9.73.44-16.99.44-.87,0-1.31-.87-1.31-2.61ZM1173.33,180.98c-4.21-4.06-6.32-9.87-6.32-17.43s2.1-12.85,6.32-16.77c4.21-3.92,10.09-5.88,17.64-5.88s12.92,1.96,16.99,5.88c4.06,3.92,6.1,9.52,6.1,16.77s-1.96,13.36-5.88,17.43c-3.92,4.07-9.66,6.1-17.21,6.1s-13.44-2.03-17.64-6.1Z"/><path class="ax" d="M1303.8,398.58c-13.36-8.28-23.67-19.45-30.93-33.54-7.26-14.08-10.89-29.4-10.89-45.96,0-18.88,4.72-34.92,14.16-48.14,9.43-13.21,21.49-23.09,36.16-29.62,14.66-6.53,29.69-9.8,45.09-9.8,17.71,0,33.18,4.21,46.4,12.63,13.21,8.43,23.31,19.54,30.28,33.33,6.97,13.8,10.46,28.53,10.46,44.22,0,17.43-4.29,32.97-12.85,46.61-8.57,13.65-20.11,24.18-34.63,31.58-14.53,7.41-30.21,11.11-47.05,11.11s-32.82-4.14-46.18-12.42ZM1392.45,385.3c6.82-11.33,10.24-27.88,10.24-49.66,0-19.46-2.69-36.45-8.06-50.97-5.38-14.52-12.63-25.55-21.78-33.11-9.15-7.55-19.1-11.33-29.84-11.33-13.07,0-22.95,5.38-29.62,16.12-6.68,10.75-10.02,26.57-10.02,47.48,0,18.88,2.54,35.8,7.62,50.75,5.08,14.96,12.2,26.65,21.35,35.07,9.15,8.43,19.39,12.63,30.71,12.63,12.78,0,22.58-5.66,29.41-16.99Z"/></g></svg>