<?xml version="1.0" encoding="UTF-8"?><svg id="l" xmlns="http://www.w3.org/2000/svg" xmlns:xlink="http://www.w3.org/1999/xlink" viewBox="0 0 1404.8 494.26"><defs><style>.ab{fill:url(#t);}.ac{fill:#153f3b;}.ad{fill:url(#o);}.ae{fill:url(#q);}.af{fill:url(#m);}.ag{fill:url(#p);}.ah{fill:#f4efe7;}.ai{fill:url(#r);}.aj{fill:url(#n);}.ak{fill:url(#s);}</style><linearGradient id="m" x1="-583.81" y1="-1687.91" x2="-243.44" y2="-1347.54" gradientTransform="translate(564 -1326.7742) scale(1 -1)" gradientUnits="userSpaceOnUse"><stop offset=".1" stop-color="#00a594"/><stop offset=".45" stop-color="#2f7d73"/><stop offset=".93" stop-color="#8fbdb1"/></linearGradient><linearGradient id="n" x1="-392.77" y1="-1395.39" x2="-145.52" y2="-1642.64" gradientTransform="translate(564 -1326.7742) scale(1 -1)" gradientUnits="userSpaceOnUse"><stop offset=".15" stop-color="#e8c58f"/><stop offset=".55" stop-color="#d7af72"/><stop offset=".95" stop-color="#b88d55"/></linearGradient><linearGradient id="o" x1="-467.4" y1="-1401.6" x2="-180.85" y2="-1688.15" gradientTransform="translate(564 -1326.7742) scale(1 -1)" gradientUnits="userSpaceOnUse"><stop offset=".02" stop-color="#f4dfc0" stop-opacity="0"/><stop offset=".43" stop-color="#f1d3a0" stop-opacity=".85"/><stop offset=".9" stop-color="#c59a61" stop-opacity="0"/></linearGradient><linearGradient id="p" x1="-498.76" y1="-1412.65" x2="-326.58" y2="-1585.6" gradientTransform="translate(564 -1326.7742) scale(1 -1)" gradientUnits="userSpaceOnUse"><stop offset=".03" stop-color="#0e6f66"/><stop offset=".45" stop-color="#167f75" stop-opacity=".65"/><stop offset=".93" stop-color="#5fa99a" stop-opacity="0"/></linearGradient><linearGradient id="q" x1="-449.7" y1="-1808.13" x2="-206.01" y2="-1564.44" gradientTransform="translate(564 -1326.7742) scale(1 -1)" gradientUnits="userSpaceOnUse"><stop offset=".11" stop-color="#8fbdb1"/><stop offset=".55" stop-color="#bfd5cb"/><stop offset="1" stop-color="#c7d3ce"/></linearGradient><linearGradient id="r" x1="-316.89" y1="-1586.12" x2="-494.7" y2="-1763.93" gradientTransform="translate(564 -1326.7742) scale(1 -1)" gradientUnits="userSpaceOnUse"><stop offset=".28" stop-color="#00a594"/><stop offset=".52" stop-color="#2f7d73" stop-opacity=".55"/><stop offset=".83" stop-color="#8fbdb1" stop-opacity="0"/></linearGradient><linearGradient id="s" x1="-324.3" y1="-1557.36" x2="-187.54" y2="-1694.13" gradientTransform="translate(564 -1326.7742) scale(1 -1)" gradientUnits="userSpaceOnUse"><stop offset=".04" stop-color="#4f8f84"/><stop offset=".55" stop-color="#7fafa4" stop-opacity=".42"/><stop offset="1" stop-color="#bfd5cb" stop-opacity="0"/></linearGradient><linearGradient id="t" x1="-461.37" y1="-1740.03" x2="-290.52" y2="-1569.17" gradientTransform="translate(564 -1326.7742) scale(1 -1)" gradientUnits="userSpaceOnUse"><stop offset=".05" stop-color="#bfd8d0" stop-opacity="0"/><stop offset=".3" stop-color="#a9cdc3"/><stop offset=".65" stop-color="#ddebe6"/><stop offset="1" stop-color="#ddebe6" stop-opacity="0"/></linearGradient></defs><path class="ac" d="M363.09,104.45l-113.58-65.55c-27.63-15.9-61.53-15.9-89.16,0L46.76,104.45C19.2,120.35,2.24,149.78,2.24,181.58v131.1c0,31.8,16.95,61.23,44.51,77.13l113.58,65.55c27.63,15.9,61.53,15.9,89.16,0l113.58-65.55c.91-.56,1.82-1.11,2.65-1.67,26.03-16.18,41.86-44.7,41.86-75.45v-131.1c0-31.8-16.95-61.23-44.51-77.13h0ZM262.9,221.39c14.23,14.23,14.23,37.24,0,51.46l-32.24,32.22c-14.23,14.23-37.26,14.23-51.49,0l-32.24-32.22c-14.23-14.23-14.23-37.24,0-51.46l32.24-32.22c14.23-14.23,37.26-14.23,51.49,0l32.24,32.22h0Z"/><path class="af" d="M160.89,119.44l69.77,69.73c-14.23-14.23-37.26-14.23-51.49,0l-32.24,32.22c-14.23,14.23-14.23,37.24,0,51.46l32.24,32.22c14.23,14.23,37.26,14.23,51.49,0l-69.77,69.73c-30.21,30.26-77.02,36.4-114.14,14.99-27.55-15.91-44.51-45.33-44.51-77.14v-131.1c0-31.79,16.96-61.22,44.52-77.12,37.11-21.41,83.93-15.27,114.14,14.99h0Z"/><path class="aj" d="M407.6,181.58v131.1c0,30.75-15.84,59.28-41.86,75.45,19.54-13.46,22.47-41.77,5.3-58.86l-140.37-140.09-69.77-69.73c-30.21-30.26-77.02-36.4-114.14-14.99l113.59-65.56c27.63-15.9,61.53-15.9,89.16,0l113.58,65.55c27.56,15.9,44.51,45.33,44.51,77.13Z"/><path class="ad" d="M387.12,360.34c1.16-12.87-3.42-25.49-12.57-34.58l-140.37-140.09-69.76-69.73c-18.75-18.79-43.73-29.14-70.34-29.14-2.42,0-4.85.09-7.25.27v5.01c2.42-.19,4.84-.31,7.25-.31,24.47,0,48.65,9.48,66.82,27.68l69.77,69.73,140.37,140.09c9,8.96,12.42,21,10.87,32.37h5.06c.05-.44.1-.86.13-1.3h0Z"/><path class="ag" d="M230.66,189.18l-69.77-69.73c-26.31-26.35-65.21-34.4-99.32-21.91-.34.13-.7.27-1.03.4h-.02c-4.7,1.78-9.3,3.95-13.77,6.52-4.27,2.47-8.25,5.29-11.99,8.36-.97.79-1.93,1.59-2.87,2.42,36.26-15.88,78.99-8.3,107.42,20.17l47.81,47.78c13.87-7.79,31.73-5.82,43.54,5.99h0Z"/><path class="ae" d="M371.04,329.27c17.17,17.09,14.23,45.4-5.3,58.86-.84.56-1.75,1.11-2.65,1.67l-113.58,65.55c-27.63,15.9-61.53,15.9-89.16,0l-113.58-65.55c37.11,21.41,83.93,15.27,114.14-14.99l69.77-69.73,32.24-32.22c14.23-14.23,14.23-37.24,0-51.46l108.14,107.88h0Z"/><path class="ai" d="M230.66,305.07c-11.35,11.35-28.24,13.49-41.85,6.73l-63.04,63.01c-13.82,13.84-31.13,22.58-49.39,25.99,30.12,5.74,61.95-3.39,84.51-25.99l69.77-69.73h0Z"/><path class="ak" d="M262.9,221.39c11.78,11.78,13.65,29.52,5.93,43.37l85.99,85.82c10.51,10.47,13.62,25.01,10.2,37.99.24-.15.5-.3.72-.45,19.54-13.46,22.47-41.77,5.3-58.86l-108.14-107.88h0Z"/><path class="ab" d="M278.38,243.86h-4.96c.93,10.37-2.57,21.05-10.52,29l-32.24,32.22-69.77,69.73c-18.17,18.21-42.35,27.68-66.82,27.68-2.42,0-4.84-.12-7.25-.31v5.01c2.42.18,4.83.27,7.25.27,26.6,0,51.58-10.35,70.33-29.14l69.77-69.73,32.24-32.22c8.89-8.89,12.89-20.86,11.97-32.52v.02Z"/><path class="ah" d="M553.92,222.87c3.37,5.19,7.56,9.7,12.57,13.52,5.01,3.83,11.79,8.38,20.35,13.66,9.29,5.83,16.62,10.84,21.99,15.03,5.37,4.19,9.92,9.33,13.66,15.44,3.73,6.1,5.6,13.25,5.6,21.45,0,9.29-2.42,17.58-7.24,24.86-4.83,7.29-11.66,12.98-20.49,17.08-8.84,4.1-18.9,6.15-30.19,6.15-7.65,0-15.53-1-23.63-3-8.11-2-14.25-4.46-18.44-7.38-1.64-1.09-2.55-2.82-2.73-5.19l-1.64-41.53v-.27c0-.73.45-1.14,1.37-1.23.91-.09,1.46.23,1.64.96,6.01,15.12,12.88,27.5,20.63,37.16,7.74,9.66,17.62,14.48,29.64,14.48,7.83,0,14.39-2.14,19.67-6.42,5.28-4.28,7.92-11.43,7.92-21.45,0-8.01-1.78-15.03-5.33-21.04-3.55-6.01-7.92-11.02-13.11-15.03-5.19-4-12.25-8.92-21.17-14.75-8.74-5.64-15.57-10.42-20.49-14.34-4.92-3.91-9.11-8.74-12.57-14.48-3.46-5.74-5.19-12.43-5.19-20.08,0-9.47,2.64-17.48,7.92-24.04,5.28-6.56,12.16-11.43,20.63-14.62,8.47-3.18,17.35-4.78,26.64-4.78,6.19,0,12.38.59,18.58,1.78,6.19,1.19,11.38,2.69,15.57,4.51,2.73,1.09,4.1,2.83,4.1,5.19l.82,37.16c0,.55-.5.91-1.5,1.09-1,.18-1.6,0-1.78-.55-3.65-11.11-8.52-21.17-14.62-30.19-6.1-9.01-15.26-13.52-27.46-13.52-8.2,0-14.71,2.37-19.53,7.1-4.83,4.74-7.24,11.2-7.24,19.4,0,6.74,1.68,12.7,5.05,17.89Z"/><path class="ah" d="M777.8,329.55c.55,0,1,.46,1.37,1.37.36.91.27,1.55-.27,1.91l-35.79,17.21-1.09.27c-1.82,0-3.46-2.05-4.92-6.15-1.46-4.1-2.28-9.6-2.46-16.53-12.75,14.75-26.23,22.13-40.43,22.13-9.83,0-17.48-3.05-22.95-9.15-5.46-6.1-8.2-14.43-8.2-25v-40.71c0-12.38-2.83-18.58-8.47-18.58-1.82,0-4.37.73-7.65,2.19h-.27c-.73,0-1.28-.45-1.64-1.37-.37-.91-.27-1.55.27-1.91l34.7-16.12,1.09-.27c.73,0,1.55.37,2.46,1.09.91.73,1.37,1.37,1.37,1.91v62.02c0,10.2,1.87,17.8,5.6,22.81,3.73,5.01,9.42,7.51,17.07,7.51,4.55,0,9.24-1.09,14.07-3.28,4.82-2.19,9.15-5.19,12.98-9.02v-46.99c0-6.37-.68-11.06-2.05-14.07-1.37-3-3.51-4.51-6.42-4.51-1.64,0-4.19.73-7.65,2.19h-.27c-.73,0-1.28-.5-1.64-1.5-.37-1-.18-1.59.55-1.78l34.42-16.12c.36-.18.82-.27,1.37-.27.73,0,1.54.37,2.46,1.09.91.73,1.37,1.37,1.37,1.91v74.04c0,6.38.64,10.84,1.91,13.39,1.27,2.55,3.37,3.82,6.28,3.82,2.19,0,6.28-1.09,12.29-3.28l.55-.27Z"/><path class="ah" d="M888.04,243.5c6.83,3.83,12.29,9.56,16.39,17.21,4.1,7.65,6.15,16.94,6.15,27.87,0,13.11-2.78,24.32-8.33,33.6-5.56,9.29-12.89,16.3-21.99,21.04-9.11,4.73-18.76,7.1-28.96,7.1-14.21,0-26.96-4.19-38.25-12.57l-23.22,10.66h-.55c-.73,0-1.19-.32-1.37-.96-.18-.64,0-1.13.55-1.5,4.92-3.09,8.51-6.69,10.79-10.79,2.28-4.1,3.42-9.6,3.42-16.53v-133.59c0-6.37-.64-10.97-1.91-13.8-1.28-2.82-3.46-4.23-6.56-4.23-2.19,0-5.74,1.09-10.66,3.28h-.27c-.73,0-1.28-.45-1.64-1.37-.37-.91-.37-1.54,0-1.91l37.97-18.03,1.37-.27c.73,0,1.54.37,2.46,1.09.91.73,1.37,1.37,1.37,1.91v106.27c6.01-6.19,12.29-11.11,18.85-14.75,6.56-3.64,13.93-5.46,22.13-5.46s15.44,1.91,22.27,5.74ZM878.88,332.83c4.73-8.01,7.1-19.4,7.1-34.15,0-16.02-2.87-28.09-8.61-36.2-5.74-8.1-13.43-12.16-23.08-12.16s-19.12,4.19-29.51,12.57v41.8c0,9.47,1.78,17.21,5.33,23.22,3.55,6.01,7.92,10.34,13.11,12.98,5.19,2.64,10.24,3.96,15.16,3.96,8.92,0,15.75-4,20.49-12.02Z"/><path class="ah" d="M1030.51,152.66c5.64,2.83,8.47,6.6,8.47,11.34,0,3.65-1.23,6.51-3.69,8.61-2.46,2.1-5.33,3.14-8.61,3.14-3.65,0-6.42-.82-8.33-2.46-1.91-1.64-3.69-4.19-5.33-7.65-2.19-3.82-4.42-6.69-6.69-8.61-2.28-1.91-5.51-2.87-9.7-2.87-9.11,0-16.3,5.92-21.58,17.76-5.28,11.84-7.92,30.15-7.92,54.91v16.94c9.47-.18,20.03-1,31.69-2.46.55,0,1,.64,1.37,1.91.36,1.28.55,2.83.55,4.64,0,1.64-.27,3.28-.82,4.92-.55,1.64-1.19,2.37-1.91,2.19-11.11-2.55-21.4-3.92-30.87-4.1v73.76c0,5.65.59,9.75,1.78,12.29,1.18,2.55,3.5,4.28,6.97,5.19,3.46.91,8.92,1.37,16.39,1.37.73,0,1.09.55,1.09,1.64s-.37,1.64-1.09,1.64l-18.3-.27c-4.01-.18-10.11-.27-18.3-.27l-16.12.27c-2.73.18-6.65.27-11.75.27-.73,0-1.09-.55-1.09-1.64s.36-1.64,1.09-1.64c4.92,0,8.56-.5,10.93-1.5,2.37-1,4-2.77,4.92-5.33.91-2.55,1.37-6.56,1.37-12.02v-61.47c0-6.01-1.19-9.83-3.55-11.47-2.37-1.64-7.29-2.46-14.75-2.46-.55,0-.82-.82-.82-2.46,0-1.46.27-2.19.82-2.19,6.74,0,11.34-.86,13.8-2.6,2.46-1.73,3.78-4.87,3.96-9.42.91-29.68,6.46-51.13,16.67-64.34,10.2-13.2,25.5-19.81,45.9-19.81,10.01,0,17.85,1.41,23.49,4.23Z"/><path class="ah" d="M1038.43,342.53c-8.38-5.19-14.85-12.2-19.4-21.04-4.55-8.83-6.83-18.44-6.83-28.82,0-11.84,2.96-21.9,8.88-30.19,5.92-8.29,13.48-14.48,22.67-18.58,9.2-4.1,18.62-6.15,28.28-6.15,11.11,0,20.81,2.64,29.1,7.92,8.29,5.29,14.62,12.25,18.99,20.9,4.37,8.65,6.56,17.89,6.56,27.73,0,10.93-2.69,20.67-8.06,29.23-5.37,8.56-12.61,15.16-21.72,19.81-9.11,4.64-18.95,6.97-29.51,6.97s-20.58-2.6-28.96-7.79ZM1094.02,334.2c4.28-7.1,6.42-17.48,6.42-31.14,0-12.2-1.69-22.85-5.05-31.96-3.37-9.11-7.92-16.02-13.66-20.76-5.74-4.73-11.98-7.1-18.71-7.1-8.2,0-14.39,3.37-18.58,10.11-4.19,6.74-6.28,16.67-6.28,29.78,0,11.84,1.59,22.45,4.78,31.83,3.18,9.38,7.65,16.71,13.39,21.99,5.74,5.28,12.16,7.92,19.26,7.92,8.01,0,14.16-3.55,18.44-10.66Z"/><path class="ah" d="M1145.25,345.13c0-1.09.27-1.64.82-1.64,6.01,0,10.11-1.32,12.29-3.96,2.19-2.64,3.28-7.6,3.28-14.89v-139.6c0-6.37-.59-10.97-1.78-13.8-1.19-2.82-3.33-4.23-6.42-4.23-2.73,0-6.38,1.09-10.93,3.28h-.27c-.73,0-1.28-.45-1.64-1.37-.37-.91-.37-1.54,0-1.91l38.52-18.03,1.09-.27c.73,0,1.59.37,2.6,1.09,1,.73,1.5,1.37,1.5,1.91v172.93c0,7.47,1,12.48,3.01,15.03,2,2.55,6.1,3.83,12.29,3.83.55,0,.82.55.82,1.64s-.27,1.64-.82,1.64c-4.37,0-7.92-.09-10.66-.27l-16.12-.27-15.85.27c-2.73.18-6.38.27-10.93.27-.55,0-.82-.55-.82-1.64Z"/><path class="ah" d="M1219.56,345.13c0-1.09.27-1.64.82-1.64,6.19,0,10.29-1.27,12.29-3.83,2-2.55,3-7.56,3-15.03v-49.72c0-6.19-.64-10.7-1.91-13.52-1.28-2.82-3.46-4.23-6.56-4.23-2.73,0-6.28,1.09-10.65,3.28h-.27c-.73,0-1.28-.45-1.64-1.37-.37-.91-.27-1.54.27-1.91l39.34-18.3.82-.27c.73,0,1.5.41,2.32,1.23.82.82,1.23,1.5,1.23,2.05v5.74c-.37,7.65-.55,16.67-.55,27.05v50c0,7.47,1.05,12.48,3.14,15.03,2.09,2.55,6.24,3.83,12.43,3.83.55,0,.82.55.82,1.64s-.27,1.64-.82,1.64c-4.55,0-8.2-.09-10.93-.27l-15.85-.27-15.84.27c-2.55.18-6.1.27-10.66.27-.55,0-.82-.55-.82-1.64ZM1234.44,206.07c-2.64-2.55-3.96-6.19-3.96-10.93s1.32-8.06,3.96-10.52c2.64-2.46,6.33-3.69,11.07-3.69s8.1,1.23,10.65,3.69c2.55,2.46,3.82,5.97,3.82,10.52s-1.23,8.38-3.69,10.93c-2.46,2.55-6.06,3.82-10.79,3.82s-8.43-1.27-11.07-3.82Z"/><path class="ah" d="M1316.26,342.53c-8.38-5.19-14.85-12.2-19.4-21.04-4.55-8.83-6.83-18.44-6.83-28.82,0-11.84,2.96-21.9,8.88-30.19,5.92-8.29,13.48-14.48,22.67-18.58,9.2-4.1,18.62-6.15,28.28-6.15,11.11,0,20.81,2.64,29.1,7.92,8.29,5.29,14.62,12.25,18.99,20.9,4.37,8.65,6.56,17.89,6.56,27.73,0,10.93-2.69,20.67-8.06,29.23-5.37,8.56-12.61,15.16-21.72,19.81-9.11,4.64-18.95,6.97-29.51,6.97s-20.58-2.6-28.96-7.79ZM1371.86,334.2c4.28-7.1,6.42-17.48,6.42-31.14,0-12.2-1.69-22.85-5.05-31.96-3.37-9.11-7.92-16.02-13.66-20.76-5.74-4.73-11.98-7.1-18.71-7.1-8.2,0-14.39,3.37-18.58,10.11-4.19,6.74-6.28,16.67-6.28,29.78,0,11.84,1.59,22.45,4.78,31.83,3.18,9.38,7.65,16.71,13.39,21.99,5.74,5.28,12.16,7.92,19.26,7.92,8.01,0,14.16-3.55,18.44-10.66Z"/></svg>